<?xml version="1.0" encoding="utf-8"?>
<!-- Generator: Adobe Illustrator 19.0.0, SVG Export Plug-In . SVG Version: 6.00 Build 0)  -->
<svg version="1.1" id="Layer_1" xmlns="http://www.w3.org/2000/svg" xmlns:xlink="http://www.w3.org/1999/xlink" x="0px" y="0px"
	 viewBox="69 147 750 500" style="enable-background:new 69 147 750 500;" xml:space="preserve">
 
<g id="BACKGROUND">
	<rect x="69" y="147" class="st0" width="500" height="250"/>
</g>
<g id="OBJECT">
	<g>
		<g>
			<g>
				<path class="st1" d="M428.3,465.4c-18.7-5.5-37.8,6.8-52.6,19.5s-30.8,27.4-50.3,27.4c-19.8,0.1-35.9-14.8-50.9-27.6
					c-15-12.8-34.4-25.2-53.2-19.3c-7,2.2-13.1,6.8-20,9.2c-14.3,4.9-30.6-0.2-42.6-9.5c-3-2.3-5.7-4.8-8.3-7.5
					c5.4,24.3,12,47.7,24.9,70.1c10.6,18.3,24,35,39.7,48.9c41.5,36.8,99.2,53.8,153,43.4s102.2-48.5,124.5-100.1
					c0.9-2.1,1.7-4.2,2.6-6.3c-12.8-5.8-24.7-13.7-34.9-23.6C450.3,480.7,441.3,469.3,428.3,465.4z"/>
				<path class="st2" d="M547.4,349.1c4.3-26.2-3.5-57.2-26.4-69.2c-21.5-11.2-49.1-2.4-70.4-14.2c-21.5-11.9-28.3-39.8-42.8-60.1
					c-18.4-25.9-51.9-39.4-82.4-33.2c-30.5,6.1-56.6,31.5-64.4,62.7c-3.5,14.2-3.4,29-5.4,43.5c-1.9,14.5-6.4,29.4-16.8,39.4
					c-17.9,17-46.2,13.5-68,24.6c-31,15.9-33.7,52.8-27.2,83.7c2.2,10.6,4.3,21.1,6.6,31.4c2.6,2.7,5.4,5.2,8.3,7.5
					c12,9.3,28.3,14.4,42.6,9.5c6.9-2.4,13-7,20-9.2c18.8-5.9,38.2,6.5,53.2,19.3s31.1,27.7,50.9,27.6c19.5-0.1,35.5-14.7,50.3-27.4
					s33.9-25,52.6-19.5c13,3.8,22,15.3,31.8,24.7c10.2,9.8,22.1,17.7,34.9,23.6c11.3-29,15.7-60.5,26.1-89.9
					C529.9,398.9,543.1,375.3,547.4,349.1z"/>
			</g>
			<path class="st2" d="M237.3,255.3c-1.1,11.9-6.9,23.3-16,31.1c-10.4,8.9-24,12.8-37.2,16.5c-7.2,2-14.3,4-21.5,6
				c-4,1.1-8.1,2.2-12.2,1.9c-7.2-0.5-13.5-5.4-17.6-11.4c-8.6-12.5-8.4-29.6-2.3-43.5c6.1-13.9,17.6-24.8,30.2-33.2
				c9.8-6.5,20.7-11.8,32.4-13.1c11.3-1.2,25.4,1.8,33.2,10.6C234.5,229.4,238.4,243.4,237.3,255.3z"/>
			<g>
				<g>
					<defs>
						<path id="SVGID_1_" d="M557.8,395.5l-12.9-35c1-3.7,1.8-7.5,2.4-11.3c4.3-26.2-3.5-57.2-26.4-69.2c-9.7-5.1-20.7-6-31.7-6.7
							l-5.9-16.5l-33,8.8c-21.3-12-28.1-39.7-42.5-59.9c-18.4-25.9-51.9-39.4-82.4-33.2c-30.5,6.1-56.6,31.5-64.4,62.7
							c-3.5,14.2-3.4,29-5.4,43.5c-0.5,3.7-1.2,7.5-2.1,11.2L232.7,213l-54.9-35.4l-8.7,55.4l46,97.4c-14.6,4.1-30.7,5.4-44.2,12.3
							c-31,15.9-33.7,52.8-27.2,83.7c7.5,35.6,13.1,69.6,31.5,101.4c10.6,18.3,24,35,39.7,48.9c41.5,36.8,99.2,53.8,153,43.4
							c45.6-8.8,87.3-37.6,112.5-77.5l27.3-14.7C555,502.3,576.4,445.9,557.8,395.5z"/>
					</defs>
					<clipPath id="SVGID_2_">
						<use xlink:href="#SVGID_1_"  style="overflow:visible;"/>
					</clipPath>
					<g class="st3">
						<g>
							<g>
								<g>
									<path class="st4" d="M247.7,545.3l-2.9,4.9c-4.6,7.6-7.1,16.4-7.1,25.3v39.9l83,10l70.5-6l-17.5-59L247.7,545.3z"/>
									<path class="st5" d="M263.5,577.2l25.1,4.7c18.9,3.6,38.3,3.1,57-1.3l16.9-3.9c5.6-1.3,10.3-4.8,13.2-9.6l-2-6.8l-126-15
										l-2.9,4.9c-1.6,2.6-2.9,5.4-4,8.2l0.4,0.8C245.1,568.6,253.5,575.3,263.5,577.2z"/>
								</g>
								<g>
									<path class="st5" d="M322.5,620.9c-3.1-3.4-7-7.1-11.6-10.5c-4.6-3.4-9.8-6.6-15.3-9.2c-5.5-2.6-11.2-4.8-16.7-6.2
										c-5.5-1.5-10.8-2.3-15.4-2.6c8.6,3.4,19.6,7.6,30.2,12.8C304.3,610.3,314.5,616.2,322.5,620.9z"/>
								</g>
								<g>
									<path class="st5" d="M368,589.7c-3.5,0.4-7.5,1.3-11.7,2.9c-4.1,1.5-8.3,3.6-12.2,6.2c-3.9,2.6-7.5,5.6-10.5,8.8
										c-3,3.2-5.4,6.5-7.2,9.6c5.2-4.8,12-10.7,19.5-15.6C353.4,596.6,361.5,592.6,368,589.7z"/>
								</g>
							</g>
							<g>
								<path class="st6" d="M325.5,370.7l44.3,6.5l56.7,20.9l-3.8,49.4l-23.3-5.7l-20.1,59.5c-3.6,10.6-3.1,22.2,1.3,32.5l0,0
									c3.7,8.6,3,18.4-1.9,26.3l-2.3,3.8c-1.9,3.2-5.1,5.4-8.8,6c-21.7,3.9-63.4,8-103.2-2.2c-9.8-2.5-18.2-8.9-23.1-17.8l0,0
									c-4.5-8.1-5.7-17.6-3.5-26.6c4.5-17.9,12.7-48.5,20.6-66.2L224.5,439l24.1-37.6c8-12.5,20.8-21.1,35.5-23.6L325.5,370.7"/>
								<path class="st4" d="M422.8,447.5l3.8-49.4l-56.7-20.9l-44.2-6.5c9.5,34.4,23.9,67.4,42.7,97.7c4.5,7.3,9.4,14.6,15.1,21.1
									l16.1-47.6L422.8,447.5z"/>
								<path class="st4" d="M284.5,481.3c-1.7,2.1-2.7,4.7-2.7,7.5c0,6.6,5.4,12,12,12c6.6,0,12-5.4,12-12
									c0-6.2-4.8-11.3-10.9-11.9l-9-33.6l-38.3,8l10.9,5.8c-7.9,17.6-16.1,48.2-20.6,66.2l0,0l39-54.9L284.5,481.3z"/>
								<g>
									<path class="st4" d="M355.6,409.2c-4,0.7-8.6,0.9-13.2-0.1c-4.6-0.9-9.3-2.8-13.2-5.8c-3.9-3-7-6.9-9-11.2
										c-2.1-4.2-3.2-8.7-3.5-12.7c-0.9,3.9-0.8,8.9,0.9,13.8c1.7,4.9,4.9,9.7,9.4,13.1s10,5.3,15.1,5.6
										C347.2,412.4,352,411.2,355.6,409.2z"/>
								</g>
								<g>
									<path class="st4" d="M388.2,458c-5.7-0.4-12.2-1-19-2s-13.9-2.5-20.8-4.5s-13.7-4.5-20-7.3c-6.3-2.7-12-5.7-17.1-8.4
										c3.9,4.2,9.1,8.4,15.2,12.1s13.1,6.8,20.4,8.9s14.9,3.2,22,3.4C376,460.3,382.7,459.4,388.2,458z"/>
								</g>
								<g>
									<path class="st4" d="M374.5,484c-6.4,3.5-13.9,7.2-22.1,10.7s-17.1,6.6-26.2,9.2c-9.1,2.5-18.4,4.4-27.2,5.7
										c-8.8,1.3-17.2,1.9-24.5,2.3c7.3,0.8,15.7,1,24.8,0.3c9-0.7,18.5-2.4,27.8-4.9c9.3-2.6,18.3-6.1,26.4-10.2
										C361.5,493,368.7,488.5,374.5,484z"/>
								</g>
								<g>
									<path class="st4" d="M349.8,491.7c-7.4,0.3-16.8,0.8-26.2,0.5c-9.4-0.3-18.8-1.3-26.2-2c6.7,3,16.3,5.3,26,5.6
										C333.2,496,342.9,494.3,349.8,491.7z"/>
								</g>
							</g>
						</g>
						<g>
							<g>
								<polygon class="st7" points="258.5,457.2 228.6,441.2 207.2,476.9 								"/>
								<polygon class="st5" points="228.6,441.2 258.5,457.2 234.5,466.4 226.3,445 								"/>
							</g>
							<g>
								<g>
									<path class="st8" d="M264.9,436.9l-1.9-11.7l0,0l-52.9,48.2c-9.5,8.6-9.5,23.5-0.1,32.2l0,0c9.8,9,25.3,7.3,32.8-3.7
										l30.6-44.4l-0.5-0.8C268.8,450.9,266.1,444.1,264.9,436.9z"/>
									<path class="st7" d="M264.6,423.8l-1.6,1.5l0,0l1.9,11.7c1.2,7.2,3.9,14,8.1,20l0.5,0.8l8.3-12L264.6,423.8z"/>
								</g>
								<g>
									<g>
										<path class="st9" d="M285.8,443.3l1.4,2.4c2.7-3.7,8.3-6.5,11-7.2l0,0c-3.3,0.3-5.2,0.5-8.2,1.8
											C288.4,441.1,287,442.1,285.8,443.3z"/>
										<path class="st10" d="M283.8,439.7l2,3.6c1.2-1.3,2.6-2.3,4.2-3c3-1.3,4.9-1.6,8.2-1.8l-2.5-6.9
											C287.8,434,284.5,438.5,283.8,439.7z"/>
										<path class="st10" d="M287.2,445.8l4,7.2c1.2-1.2,2.6-2.2,4.2-2.9c1.8-0.7,4.6-1.5,6.5-1.7l-3.7-9.9
											C295.4,439.2,289.9,442.1,287.2,445.8z"/>
										<path class="st9" d="M291.2,453l1.3,2.4c2.1-3,5.9-5.7,9.3-6.9l0,0c-1.9,0.2-4.7,1-6.5,1.7
											C293.8,450.8,292.4,451.7,291.2,453z"/>
										<path class="st9" d="M283.8,439.7c0.8-1.2,4-5.8,11.8-8c-5.9,0.1-11.5,2.8-15.3,7.4l-0.4,0.5l4,6.7c0.4-1.1,1.1-2,1.9-2.9
											L283.8,439.7z"/>
										<path class="st9" d="M285.8,443.3c-0.8,0.9-1.5,1.8-1.9,2.9l1.7,2.9c0.2-1.2,0.8-2.3,1.5-3.4L285.8,443.3z"/>
										<path class="st9" d="M291.1,458.3l5.1,8.6l2-1.5l-5.6-10.1C291.8,456.3,291.3,457.3,291.1,458.3z"/>
										<path class="st10" d="M301.9,448.5c-3.4,1.2-7.2,3.9-9.3,6.9l5.6,10.1l7.8-5.9L301.9,448.5z"/>
										<path class="st9" d="M291.2,453c-0.7,0.8-1.3,1.7-1.8,2.6l1.6,2.8c0.3-1,0.8-2,1.5-3L291.2,453z"/>
										<path class="st9" d="M287.2,445.8c-0.8,1.1-1.4,2.2-1.5,3.4l3.8,6.5c0.4-1,1-1.8,1.8-2.6L287.2,445.8z"/>
									</g>
									<g>
										<g>
											<path class="st10" d="M307.4,476.9c-7,0-12.6-5.7-12.6-12.6c0-0.1,0-0.1,0-0.2c-1.1,1.9-1.8,4.1-1.8,6.5
												c0,7,5.7,12.6,12.6,12.6c6.9,0,12.5-5.6,12.6-12.5C316,474.4,312,476.9,307.4,476.9z"/>
											<path class="st11" d="M307.4,476.9c4.6,0,8.6-2.5,10.8-6.2c0-0.1,0-0.1,0-0.2c0-7-5.7-12.6-12.6-12.6
												c-4.6,0-8.6,2.5-10.8,6.2c0,0.1,0,0.1,0,0.2C294.8,471.2,300.4,476.9,307.4,476.9z"/>
										</g>
										
											<ellipse transform="matrix(0.1635 -0.9865 0.9865 0.1635 -201.18 690.3093)" class="st0" cx="306.5" cy="463.8" rx="3.5" ry="6.5"/>
									</g>
									<g>
										<polygon class="st12" points="186.1,194.5 270.1,388.9 280.4,385 216,225.7 										"/>
										<polygon class="st9" points="186.1,194.5 185.8,194.2 182.4,235.3 259.4,393 270.1,388.9 										"/>
										<polygon class="st0" points="185.8,194.2 177.9,236.1 259.4,393 182.4,235.3 										"/>
										<polygon class="st10" points="216,225.7 280.4,385 218.5,224.3 186,194.4 186.1,194.5 										"/>
									</g>
									<g>
										<path class="st9" d="M286.7,358.8l-4.4,6.8c0.1,8-4,16.2-10.5,21.4c-6.4,5.1-15.3,7.5-23.9,6.4c-2.8-0.4-5.6-1.1-8.4-2.1
											l2.2-3.3l-11.9-10l-9,5.2l-4.4,6.8c8.2,8.5,18.8,13.9,29.9,15.3c1.9,0.2,3.8,0.4,5.7,0.4c9.9,0,19.6-3.3,27.2-9.3
											c9.6-7.6,19.6-25.9,19.4-37.7L286.7,358.8z"/>
										<g>
											<path class="st10" d="M256.4,398.9c-1.9,0-3.8-0.1-5.7-0.4c-11.1-1.4-21.8-6.8-29.9-15.3l8.7-8.3
												c6.3,6.5,14.3,10.7,22.8,11.7c8.6,1.1,17.5-1.3,23.9-6.4c6.6-5.2,10.6-13.4,10.5-21.4l12-0.1
												c0.1,11.8-5.5,23.4-15.1,30.9C276,395.6,266.3,398.9,256.4,398.9z"/>
										</g>
									</g>
									<g>
										<path class="st7" d="M291.6,393.7L291.6,393.7c3-1.7,6.7-0.4,8,2.7l4.1,9.9c1.1,2.6-0.1,5.7-2.7,6.9l0,0
											c-2.6,1.2-5.7,0.1-7-2.5l-4.7-9.6C288,398.4,289,395.2,291.6,393.7z"/>
										<g>
											<path class="st8" d="M259.3,399.9l10.5-8.4c3.3-2.7,7.9-3,11.5-0.8l6.2,3.7c1.9,1.2,3.4,2.9,4.2,5l10.9,28.6
												c0.7,2,0.4,4.2-0.9,5.8l-3.5,4.7l-2.5-6.9l0,0c-5.9,0.1-11.5,2.8-15.3,7.4l-0.4,0.5l4,6.7l-7.1-1.6
												c-4.4-0.9-7.9-4-9.5-8.1L257,408.9C255.6,405.7,256.6,402,259.3,399.9z"/>
											<path class="st7" d="M301.3,424.7l-12.5-3.5c-1.8-0.5-3.8,0-5.2,1.4l-6.8,6.7l5-7.6c2.1-3.2,6.3-4.2,9.6-2.4L301.3,424.7
												z"/>
											<path class="st7" d="M298.7,417.7l-12.7-6.2c-2.7-1.3-5.9-0.5-7.6,2l-4.6,6.7l3.2-7.4c1.8-4.1,7-5.6,10.7-2.9
												L298.7,417.7z"/>
											<path class="st7" d="M294.3,406.3l-9.7-6.1c-2.7-1.7-6.2-1.1-8.2,1.3l-4.7,5.7l3.9-7.3c1.7-3.2,5.9-4,8.7-1.7
												L294.3,406.3z"/>
										</g>
									</g>
								</g>
							</g>
						</g>
						<g>
							<g>
								<path class="st5" d="M344,376.8c4.7,3.7,10.6,5.7,16.5,5.6c2.8,0,5.6-0.6,8.2-1.5l3.9-13.9l-39.5-8.6l-0.7,1.2
									C335,366.1,338.5,372.4,344,376.8z"/>
								<path class="st8" d="M360.5,382.4c-5.9,0.1-11.9-1.9-16.5-5.6c-5.5-4.3-9-10.7-11.6-17.3l-6.9,11.1
									c-3.4,5.5-3.9,12.4-1.1,18.3l0,0c4.2,9.1,13.8,14.8,23.7,13.5c9.4-1.2,16.9-7.8,19.3-16.6l1.4-5
									C366.1,381.8,363.3,382.3,360.5,382.4z"/>
							</g>
							<g>
								<path class="st13" d="M319,348.6l-18-37.8c-3.7-7.8,0-17,8-20.2c16.4-6.4,31-21.3,43.3-33.7c1.4-1.4,2.9-2.9,4.7-3.9
									c1.8-0.9,4.1-1.2,5.9-0.2c2,1.2,2.9,3.8,2.6,6.1c-0.3,2.3-1.4,4.5-2.5,6.5c2.4-0.9,5.5-2.4,7.4-4.1c2.5-2.1,5-4.2,8.4-4.7
									c1.4-0.2,2.8,0,4,0.7c3.9,2.1,3.6,7.1,2.4,10.9c-2.4,7.5-7.5,14.2-14.1,18.5l-37.7,10l3,19.3l-9.4,9.8l-0.3,22.8L319,348.6
									L319,348.6z"/>
								<path class="st8" d="M393.5,330.3l-6.3-25.1c-2.2-9.6-8.1-17.3-15.8-22.2c-14.7,0.7-29.3,4.7-42.3,11.6
									c1.7,5.2,3.2,10.8,2.4,16.2c-0.8,5-3.8,9.6-8,12.3l-0.5,19.1l1,4.2c4.4,19.2,23.6,31.2,42.8,26.7l0,0
									C386,368.7,398,349.5,393.5,330.3z"/>
								<g>
									<g>
										<path class="st14" d="M347.5,369.5c-9.7-1-18.8-5.4-25.6-12.3l2.1-2.1c6.4,6.4,14.9,10.4,23.8,11.4L347.5,369.5z"/>
									</g>
									<g>
										<g>
											<path class="st14" d="M336.8,347.9c-6.7-3-13.8-3.5-22.4-3.9l0.1-3c7,0.3,15.7,0.6,23.5,4.1L336.8,347.9z"/>
										</g>
										<g>
											<path class="st0" d="M344.4,362.9c-2-5.5-3.7-11.4-5-16.8c6.2-2,11.2-6.7,14.7-10.1c4-3.8,8.9-8.4,14.3-9.1
												c0.5-0.1,1-0.1,1.5-0.1c2.7,0,5.6,0.8,8.6,1.6l1.2,0.3c2.8,0.7,6.1,1.5,9.4,1.5c0.5,0,0.9,0,1.4,0c1.3-0.1,2.6-0.4,3.9-1
												l-0.8-3.7c-4.1,1.3-8.6,0.4-12.8-0.7c-4.2-1.1-8.5-2.5-12.8-2c-6.6,0.8-11.8,5.6-16.6,10.1c-4.8,4.5-10.1,9.3-16.7,9.9
												c1.4,6.9,3.6,14.5,6,21.3c2.9,8,11,12.6,19.2,11.2C350.9,373.1,346,367.4,344.4,362.9z"/>
											<path class="st15" d="M394.4,329.3c-1.3,0.5-2.6,0.9-3.9,1c-0.5,0-0.9,0-1.4,0c-3.3,0-6.6-0.8-9.4-1.5l-1.2-0.3
												c-3-0.8-5.9-1.6-8.6-1.6c-0.5,0-1,0-1.5,0.1c-5.4,0.6-10.4,5.3-14.3,9.1c-3.5,3.3-8.5,8-14.7,10.1c1.3,5.5,3,11.3,5,16.8
												c1.6,4.5,6.5,10.2,15.4,12.6c0.8-0.1,1.5-0.3,2.3-0.5l12.3-3.8c15.5-4.8,24.7-20.8,21.2-36.6L394.4,329.3z"/>
										</g>
									</g>
								</g>
								<g>
									<path class="st13" d="M343.2,306.7c-4.1,1.5-7,5-8.1,9l20.2-7.6C351.8,305.9,347.4,305.2,343.2,306.7z"/>
								</g>
								<g>
									<path class="st13" d="M379.5,300.3c3.4,0.1,6.4,2.4,8.3,5.9l-16.9-0.5C373,302.3,376.1,300.2,379.5,300.3z"/>
								</g>
								<circle class="st5" cx="351.2" cy="321.4" r="3"/>
								
									<ellipse transform="matrix(-4.627253e-002 -0.9989 0.9989 -4.627253e-002 83.9791 710.7648)" class="st5" cx="381.3" cy="315.3" rx="3" ry="2.5"/>
								<g>
									<circle class="st8" cx="315.1" cy="351.4" r="12"/>
									<circle class="st7" cx="315.1" cy="351.4" r="6.9"/>
								</g>
								<path class="st16" d="M303.1,312.2c-3.1-8.5,1.5-17.7,9.9-20.7c5.3-1.9,10.4-4.7,15-8.1c9.1-6.8,16.5-15.5,23.8-24.3
									c1.9-2.3,3.8-4.6,6.2-6.2c0.2-0.2,0.5-0.3,0.8-0.4c-0.6,0.1-1.1,0.4-1.6,0.6c-1.8,0.9-3.3,2.4-4.7,3.9
									c-12.3,12.3-26.9,27.2-43.3,33.7c-8,3.2-11.7,12.4-8,20.2l6.1,12.9l0,0L303.1,312.2z"/>
							</g>
						</g>
						<g>
							<g>
								<path class="st17" d="M390.7,380.3l-9.4-0.8c-3.7-0.3-7,2.1-7.9,5.8l-4.7,20.4l2.8,0.3c6,0.7,11.5-3.4,12.6-9.4l1-5.4
									L390.7,380.3z"/>
								<g>
									<path class="st7" d="M382.3,398.3l-3-6.1c-1.1-2.3-0.6-5.1,1.4-6.7l8.6-7.1c3.3-2.7,7.6-3.8,11.7-2.9l18.5,4l11.1,34.9
										l-18,16.2c-1.7,1.5-3.9,2.4-6.2,2.3l-6.2-0.2c-2.8-0.1-5.2-1.8-6.3-4.3l-1.6-3.9l-1.3-0.3c-2.6-0.5-4.6-2.7-4.9-5.3
										l-0.8-6.4l0,0c-2.3-0.2-4.3-1.6-5.1-3.8l-1.1-2.8c-1-2.6-0.1-5.5,2.2-7L382.3,398.3z"/>
									<path class="st17" d="M382.3,398.3l16.9-13.4l-5.5,2.5c-4.3,2-8,5.2-10.5,9.3L382.3,398.3z"/>
									<path class="st17" d="M385.2,412.6l23.7-5.4l-5.4,2.7c-4.7,2.4-10,3.4-15.2,3L385.2,412.6z"/>
									<path class="st17" d="M392.2,424.5h16.7l-2.8,0.8c-4.5,1.3-9.3,1-13.6-0.7L392.2,424.5z"/>
								</g>
							</g>
							<g>
								<g>
									<path class="st18" d="M411.7,433.1c14.3,39.2,42.8,69.4,73.9,78.3l23.7,6.8l15.5-5.6l-4.1-11.3l2.4-3.5
										c18.1-26.9,20.5-68.4,6.3-107.5l-33.9-93.1L377.8,340L411.7,433.1z"/>
									<path class="st19" d="M461.1,273.3l-20.6,7.5l-15.5,5.6l-36.1,13.2c6.5,17.7,1.5,35.8-11,40.4l117.7-42.8
										C483,301.7,467.6,291.1,461.1,273.3z"/>
								</g>
								<path class="st20" d="M476.6,267.7L404.3,294c6.5,17.7,1.5,35.8-11,40.4l33.9,93.1c14.3,39.2,42.8,69.4,73.9,78.3l23.7,6.8
									l13.8-20.4c18.1-26.9,20.5-68.4,6.3-107.5L511,291.5C498.5,296.1,483.1,285.4,476.6,267.7z"/>
								<g>
									<path class="st19" d="M527.8,390.8L497,306.3c-12.4-0.6-24.7-8.8-32.6-22l-46.5,16.9c2.4,15.2-1.7,29.4-10.8,37.8
										l30.8,84.5c12.9,35.4,39,63.4,66.4,71.3l11.7,3.4l6.8-10.1C538.7,464.4,540.7,426.3,527.8,390.8z"/>
									<g>
										<path class="st18" d="M470.8,281.9l-6.4,2.3c7.9,13.2,20.2,21.4,32.6,22l6.4-2.3C491,303.3,478.8,295.1,470.8,281.9z"/>
										<path class="st18" d="M527.8,390.8c12.9,35.4,10.9,73.6-5,97.3l-6.8,10.1l4.1,1.2l9.1-13.6c15.9-23.7,17.9-61.9,5-97.3
											L503.4,304l-6.4,2.3L527.8,390.8z"/>
									</g>
								</g>
								<g>
									<polygon class="st14" points="502.5,363.8 484.2,370.5 475.2,345.9 453.8,353.7 462.8,378.3 444.4,385 452.2,406.4 
										470.6,399.7 479.5,424.3 500.9,416.5 492,391.9 510.3,385.2 									"/>
									<polygon class="st0" points="508.5,361.6 490.1,368.3 481.2,343.7 459.8,351.5 468.7,376.1 450.4,382.8 458.2,404.2 
										476.5,397.5 485.5,422.1 506.9,414.3 497.9,389.7 516.3,383 									"/>
								</g>
							</g>
						</g>
					</g>
				</g>
			</g>
		</g>
		<g>
			<path class="st21" d="M669.2,499.7c-0.9-2.8-2.3-5.5-4.5-7.1c-2.2-1.5-5.2-1.4-6.7,0.8c-1.1,1.8-1,4.4-0.2,6.5
				c0.1,0.3,0.3,0.7,0.5,1c1.1,2-0.1,4.6-2.4,4.9c-4.6,0.6-9.1,0.1-13.1-2c-0.7-2.5-1.7-5-2.8-7.3c1.1-2.6,3.1-4.8,5.5-6.4
				c1.2-0.8,2.8-0.2,3.2,1.2c0,0.2,0.1,0.3,0.2,0.5c0.4,1.2,1,2.5,2,3.1c1.5,1,3.3,0.2,4-1.3s0.5-3.4,0-5.1c-0.7-2.6-2-5.2-3.7-7.3
				c-1.2-1.5-2.6-2.8-4.3-3.3c-1.6-0.4-3.5,0.3-3.8,2c-0.3,1.3,0.4,2.8,1.3,3.9c0.2,0.2,0.3,0.4,0.5,0.5c1.1,1,0.9,2.8-0.4,3.4
				c-2.6,1.4-5.5,2-8.4,1.7c-1.9-2.9-4.1-5.7-6.6-8.1c0.3-3.8,1.8-7.3,4.1-10.4c1.2-1.6,3.7-1.6,4.8,0.1c0.1,0.2,0.3,0.4,0.5,0.6
				c1.1,1.4,2.5,2.8,4.2,3.2c2.4,0.6,4.4-1.3,4.6-3.6c0.2-2.3-1-4.7-2.5-6.8c-2.2-3.1-5.1-5.8-8.4-7.9c-2.2-1.4-4.8-2.5-7.2-2.3
				s-4.4,2-4.1,4.4c0.3,1.8,1.8,3.6,3.6,4.6c0.3,0.2,0.6,0.3,0.9,0.4c1.9,0.7,2.5,3.2,1.1,4.7c-2.7,2.9-6,5.2-9.8,6.1
				c-2.8-1.9-5.7-3.6-8.9-4.9c-0.7-2.3-0.6-4.8,0.1-7.1c0.4-1.2,1.7-1.7,2.8-1c0.1,0.1,0.3,0.2,0.4,0.2c0.9,0.6,2,1.1,3,0.9
				c1.5-0.2,2.2-1.7,1.9-3c-0.4-1.3-1.5-2.4-2.8-3.3c-1.9-1.3-4.1-2.3-6.4-2.7c-1.6-0.3-3.2-0.4-4.5,0.2s-2.1,2.1-1.4,3.4
				c0.5,1,1.8,1.7,3,1.9c0.2,0,0.4,0,0.6,0c1.2,0,2.1,1.3,1.6,2.5c-1,2.3-2.5,4.4-4.6,5.7c-3.2-1-6.6-1.6-10-2
				c-2.2-3.1-3.3-6.8-3.5-10.6c-0.1-2,1.8-3.6,3.8-3c0.2,0.1,0.5,0.1,0.7,0.2c1.7,0.3,3.7,0.5,5.2-0.3c2.2-1.1,2.5-3.9,1.2-5.7
				c-1.3-1.9-3.8-2.9-6.2-3.6c-3.7-1-7.7-1.2-11.5-0.6c-2.6,0.4-5.3,1.2-6.9,2.9c-1.7,1.7-2.1,4.4-0.3,6c1.4,1.3,3.7,1.6,5.7,1.2
				c0.3-0.1,0.7-0.2,1-0.3c1.9-0.7,4,0.8,3.9,2.9c-0.2,4-1.3,7.8-3.6,11c-4,0.4-7.8,1.2-11.5,2.4c-0.6-0.8-1.2-1.8-1.6-2.8
				c-0.5-1.1,0.3-2.4,1.5-2.5c0.2,0,0.3,0,0.5-0.1c1.1-0.2,2.2-0.5,2.9-1.2c1-1.1,0.7-2.7-0.5-3.5c-1.1-0.8-2.7-0.9-4.3-0.8
				c-2.3,0.2-4.6,0.9-6.7,2c-1.4,0.8-2.7,1.8-3.4,3.1c-0.6,1.3-0.3,2.9,1.1,3.5c1,0.4,2.4,0.1,3.5-0.5c0.2-0.1,0.3-0.2,0.5-0.4
				c1-0.8,2.4-0.4,2.8,0.8c0.3,1.1,0.6,2.2,0.6,3.4c-4.3,1.7-8.3,3.9-11.9,6.5c-2.7-0.8-5.1-2.4-7-4.5c-1.1-1.2-0.7-3.1,0.7-3.8
				c0.2-0.1,0.4-0.2,0.5-0.3c1.2-0.7,2.5-1.6,3.1-2.8c0.8-1.8-0.4-3.7-2.2-4.1c-1.8-0.5-3.8,0.1-5.7,1c-2.8,1.3-5.3,3.2-7.4,5.5
				c-1.4,1.6-2.6,3.4-2.8,5.3c-0.2,1.9,1,3.8,2.9,3.8c1.5,0.1,3.1-0.9,4.1-2.2c0.2-0.2,0.3-0.4,0.5-0.7c0.8-1.4,2.9-1.5,3.9-0.2
				c1.8,2.4,3.1,5.1,3.4,8c-3,2.9-5.7,6.2-8,9.8c-1.4-0.3-2.8-0.7-4.2-1.4c-1.3-0.6-1.5-2.3-0.5-3.3c0.1-0.1,0.2-0.3,0.4-0.4
				c0.8-0.9,1.6-2,1.7-3.2c0.1-1.7-1.4-2.9-3-2.7c-1.6,0.1-3.1,1.2-4.3,2.5c-1.9,1.9-3.4,4.2-4.4,6.7c-0.7,1.7-1.1,3.6-0.7,5.2
				s1.9,2.8,3.5,2.3c1.2-0.4,2.2-1.7,2.7-3c0.1-0.2,0.1-0.5,0.2-0.7c0.3-1.4,1.9-2.1,3.1-1.3c1.3,0.8,2.5,1.9,3.5,3
				c-1.8,3.4-3.3,7.1-4.4,10.9c-3.4,1.6-7.3,2.1-11.1,1.6c-2-0.2-3.2-2.4-2.3-4.2c0.1-0.2,0.2-0.5,0.3-0.7c0.6-1.7,1.2-3.5,0.7-5.2
				c-0.7-2.4-3.4-3.2-5.4-2.2c-2.1,1-3.5,3.2-4.6,5.5c-1.6,3.5-2.5,7.3-2.6,11.2c-0.1,2.6,0.3,5.4,1.6,7.3c1.4,2,4,2.8,5.9,1.3
				c1.5-1.1,2.2-3.4,2.2-5.4c0-0.3,0-0.7-0.1-1c-0.4-2,1.5-3.8,3.5-3.3c3.9,0.9,7.5,2.7,10.2,5.4c-0.1,1.4-0.2,2.7-0.2,4.1
				c0,3,0.3,5.9,0.7,8.8c-1.4,0.8-2.9,1.3-4.4,1.7c-1.6,0.4-3-0.9-2.9-2.5c0-0.2,0-0.4,0-0.6c0-1.4-0.1-2.9-0.9-4
				c-1.2-1.6-3.4-1.5-4.6-0.2c-1.3,1.3-1.8,3.3-1.9,5.3c-0.3,3,0.1,6.1,1.1,9c0.7,2,1.7,3.9,3.2,5c1.5,1.1,3.7,1,4.7-0.6
				c0.8-1.2,0.7-3.1,0.1-4.6c-0.1-0.2-0.2-0.5-0.4-0.7c-0.8-1.4,0.1-3.2,1.7-3.4c1.7-0.2,3.5-0.2,5.2,0.1c0.9,3.6,2.1,7,3.7,10.2
				c-2.5,4.1-8.4,8.8-11.7,11c-1.7,1.1-4,0.2-4.5-1.7c-0.1-0.2-0.1-0.5-0.2-0.7c-0.6-1.7-1.4-3.5-2.8-4.4c-2.1-1.4-4.6-0.3-5.6,1.8
				s-0.7,4.7,0,7.2c1,3.7,2.8,7.2,5.2,10.3c1.6,2.1,3.7,3.9,6,4.6c2.3,0.6,4.9-0.4,5.4-2.7c0.4-1.8-0.5-4-1.8-5.5
				c-0.2-0.3-0.5-0.5-0.7-0.7c-1.6-1.3-1.3-3.9,0.5-4.8c3.7-1.9,11.2-4.8,16.1-4.7c1.9,2.4,4,4.7,6.2,6.8c-0.5,1.6-1.3,3-2.4,4.4
				c-0.9,1.2-2.7,1.2-3.6-0.1c-0.1-0.2-0.2-0.3-0.3-0.4c-0.8-1-1.8-2-3.1-2.3c-1.8-0.4-3.3,1-3.4,2.6c-0.1,1.7,0.7,3.5,1.8,5
				c1.6,2.3,3.8,4.3,6.2,5.8c1.7,1,3.5,1.8,5.3,1.7s3.3-1.5,3-3.3c-0.2-1.4-1.3-2.6-2.7-3.4c-0.2-0.1-0.4-0.2-0.7-0.3
				c-1.4-0.5-1.9-2.4-0.8-3.5c1.2-1.3,2.6-2.4,4.1-3.3c3.4,2.6,7.1,4.9,11.1,6.7c0.6,2.7,0.4,5.6-0.4,8.3c-0.5,1.6-2.3,2.2-3.6,1.3
				c-0.2-0.1-0.3-0.2-0.5-0.3c-1.2-0.7-2.6-1.4-4-1.2c-2,0.2-3,2.2-2.5,3.9c0.5,1.7,2,3.2,3.7,4.4c2.5,1.7,5.4,3,8.4,3.6
				c2.1,0.4,4.3,0.5,6-0.3c1.7-0.8,2.8-2.7,1.9-4.4c-0.7-1.3-2.3-2.2-3.9-2.4c-0.3,0-0.5-0.1-0.8-0.1c-1.6,0-2.8-1.7-2.1-3.2
				c1.1-2.7,2.9-5.2,5.2-6.9c4.1,1.2,8.5,1.9,13,2c0.3,1,0.5,2.1,0.6,3.2c0.1,1.2-1.1,2.2-2.3,1.8c-0.1,0-0.3-0.1-0.4-0.1
				c-1.1-0.2-2.2-0.3-3.2,0.2c-1.3,0.7-1.5,2.3-0.8,3.5c0.8,1.1,2.3,1.8,3.8,2.2c2.2,0.6,4.6,0.7,7,0.4c1.6-0.2,3.2-0.7,4.2-1.7
				s1.3-2.7,0.2-3.6c-0.8-0.8-2.2-0.9-3.4-0.7c-0.2,0-0.4,0.1-0.6,0.2c-1.2,0.4-2.4-0.5-2.4-1.7c0.1-1.2,0.2-2.3,0.6-3.4
				c3.7-0.1,7.3-0.6,10.8-1.3c4,2.5,6.9,6.4,8.8,10.8c1,2.2-0.5,4.7-3,4.9c-0.3,0-0.6,0.1-0.9,0.1c-2.1,0.3-4.3,0.9-5.7,2.4
				c-2,2.1-1.3,5.3,0.9,6.9c2.2,1.5,5.4,1.7,8.4,1.5c4.5-0.4,9-1.8,13.1-4c2.7-1.5,5.4-3.5,6.6-6c1.2-2.6,0.5-5.7-2.1-6.8
				c-2-0.8-4.7-0.2-6.8,1c-0.3,0.2-0.7,0.4-1,0.7c-1.9,1.6-4.8,0.7-5.5-1.6c-1.5-4.7-1.8-9.7-0.3-14.3c2.8-1.4,5.5-3.1,7.9-5
				c1.7,0.9,3.2,2.1,4.6,3.5c1.1,1.2,0.7,3.1-0.7,3.8c-0.2,0.1-0.4,0.2-0.5,0.3c-1.2,0.7-2.5,1.6-3.1,2.8c-0.8,1.8,0.4,3.7,2.2,4.1
				c1.8,0.5,3.8-0.1,5.7-1c2.8-1.3,5.3-3.2,7.4-5.5c1.4-1.6,2.6-3.4,2.8-5.3c0.2-1.9-1-3.8-2.9-3.8c-1.5-0.1-3.1,0.9-4.1,2.2
				c-0.2,0.2-0.3,0.4-0.5,0.7c-0.8,1.4-2.9,1.5-3.9,0.2c-1.3-1.6-2.2-3.4-2.8-5.3c2.7-2.5,5.2-5.3,7.4-8.4c3.8-0.4,7.5,0.5,11,2.2
				c1.8,0.9,2.2,3.3,0.8,4.8c-0.2,0.2-0.3,0.4-0.5,0.6c-1.2,1.3-2.3,2.9-2.4,4.7c-0.1,2.5,2.1,4.1,4.3,3.9c2.3-0.2,4.4-1.8,6.2-3.6
				c2.7-2.7,4.9-6,6.3-9.6c1-2.4,1.6-5.1,1-7.5c-0.6-2.3-2.8-4-5.1-3.3c-1.8,0.6-3.2,2.4-3.9,4.3c-0.1,0.3-0.2,0.6-0.3,1
				c-0.4,2-2.7,3-4.5,1.9c-3.4-2.1-6.1-5-7.7-8.6c1.5-3.3,2.7-6.8,3.5-10.5c1.6-0.3,3.3-0.4,5-0.2c1.5,0.2,2.4,1.7,1.7,3.1
				c-0.1,0.2-0.2,0.3-0.2,0.5c-0.5,1.2-0.9,2.6-0.5,3.8c0.5,1.8,2.5,2.3,4,1.6c1.5-0.7,2.6-2.4,3.4-4.1c1.2-2.6,1.9-5.4,1.9-8.3
				c0.1-1.9-0.2-4-1.2-5.4s-2.9-2.1-4.3-1c-1.1,0.8-1.6,2.5-1.6,4c0,0.2,0,0.5,0.1,0.8c0.3,1.5-1.1,2.8-2.6,2.5
				c-1.7-0.4-3.4-1-4.9-1.9c0.3-2.4,0.5-4.9,0.5-7.4c0-1.1,0-2.2-0.1-3.3c3-3.2,7-5.2,11.3-6.3c2.2-0.5,4.3,1.3,4.1,3.5
				c0,0.3,0,0.6,0,0.8c0,2,0.1,4.2,1.3,5.7c1.6,2.2,4.7,2.1,6.5,0.3c1.8-1.8,2.5-4.7,2.7-7.6C671.1,508.2,670.5,503.8,669.2,499.7z"
				/>
			<g>
				<g>
					<path class="st22" d="M581.6,482.1c0.3,1.9-1.2,3.8-3.2,5.8c-1,1-2.2,2.1-3.5,3.1c-1.3,1.1-2.7,2.2-4.1,3.4
						c-1.4,1.2-2.8,2.4-4.1,3.4c-1.3,1.1-2.6,2-3.7,2.9c-2.3,1.6-4.5,2.8-6.3,2.1c-1.7-0.6-2.7-3.1-2-6.8c0.3-1.8,1.1-3.9,2.4-6
						c1.3-2.1,3-4.1,5.1-5.9c2.2-1.8,4.5-3.1,6.8-4c2.3-0.8,4.4-1.2,6.3-1.2C579,478.9,581.3,480.3,581.6,482.1z"/>
				</g>
				<g>
					<path class="st22" d="M556.1,536.1c-1.4,0.4-3.1-0.6-4.6-2.9s-2.7-5.9-2.8-9.9c-0.1-4.1,0.9-7.7,2.3-10
						c1.4-2.4,3.1-3.5,4.5-3.1s2.3,2.1,2.8,4.4c0.5,2.3,0.8,5.3,0.9,8.5c0.1,3.2,0,6.2-0.5,8.5C558.2,533.9,557.4,535.7,556.1,536.1
						z"/>
				</g>
				<g>
					<path class="st22" d="M596.3,557.9c0.2,1.3-1.1,2.7-3.4,3.6c-2.3,1-5.7,1.4-9.4,0.8s-6.8-2.1-8.7-3.7s-2.6-3.4-2.1-4.5
						c0.6-1.2,2.3-1.7,4.4-1.8c2.2-0.1,4.9,0.2,7.8,0.6c2.9,0.5,5.6,1.1,7.6,1.9C594.7,555.5,596.2,556.5,596.3,557.9z"/>
				</g>
				<g>
					
						<ellipse transform="matrix(-0.5976 -0.8018 0.8018 -0.5976 546.6801 1326.0677)" class="st22" cx="606.1" cy="525.9" rx="7.7" ry="19.4"/>
				</g>
				<g>
					<path class="st22" d="M583.2,504.4c1.5,0.7,2.2,2.8,2.4,5.6c0.2,2.8-0.1,6.3-0.8,10.1c-0.7,3.8-1.6,7.2-2.7,9.7
						c-1.1,2.6-2.5,4.3-4.2,4.4s-3.3-1.6-4.3-4.5c-1.1-2.9-1.4-7.2-0.6-11.7c0.8-4.5,2.6-8.4,4.7-10.8
						C579.5,504.7,581.7,503.7,583.2,504.4z"/>
				</g>
				<g>
					<path class="st22" d="M576.3,546.2c-0.4,0.6-1.4,0.9-2.8,0.4c-1.4-0.4-3.1-1.5-4.5-3.2c-1.4-1.7-2.1-3.6-2.2-5.1s0.3-2.4,1-2.7
						c0.7-0.2,1.6,0.3,2.5,1.1c0.9,0.8,1.9,1.9,2.9,3.2c1,1.3,1.9,2.5,2.5,3.5C576.3,544.6,576.7,545.5,576.3,546.2z"/>
				</g>
				<g>
					<path class="st22" d="M572.2,502c1,1,0,3.8-1.9,6.6c-1.9,2.8-4.2,4.8-5.5,4.2c-1.3-0.6-1-3.9,1.2-7.1
						C568.2,502.5,571.2,501,572.2,502z"/>
				</g>
				<g>
					<path class="st22" d="M611.3,493.8c-0.5,1.4-2.3,2-4.7,2.4c-2.4,0.3-5.3,0.3-8.5,0c-3.2-0.2-6.1-0.7-8.4-1.3
						c-2.3-0.7-3.9-1.6-4.3-3c-0.3-1.4,0.9-3,3.3-4.3c2.4-1.3,6.1-2.1,10.1-1.8c4,0.3,7.5,1.6,9.8,3.3
						C610.8,490.6,611.8,492.4,611.3,493.8z"/>
				</g>
				<g>
					<path class="st22" d="M608.7,479.5c-0.3,0.7-1.3,1-2.5,1.1c-1.3,0.1-2.8,0-4.5-0.2s-3.2-0.4-4.4-0.8s-2.1-0.9-2.3-1.6
						s0.5-1.6,1.8-2.3c1.3-0.7,3.3-1.1,5.5-0.8c2.2,0.2,4,1,5.2,2C608.6,477.9,609,478.9,608.7,479.5z"/>
				</g>
				<g>
					<path class="st22" d="M630.1,509.7c-1.3,0.1-2.6-1-3.8-2.6c-1.3-1.6-2.6-3.7-4-6s-2.7-4.4-3.5-6.3c-0.8-1.8-1.3-3.5-0.6-4.6
						s2.5-1.3,4.9-0.4c1.2,0.5,2.5,1.2,3.7,2.3c1.2,1.1,2.4,2.5,3.4,4.1s1.7,3.3,2.1,4.9c0.4,1.6,0.5,3.1,0.4,4.4
						C632.4,508,631.4,509.6,630.1,509.7z"/>
				</g>
				<g>
					<path class="st22" d="M622.8,543.5c-0.7-0.8-0.5-2.1,0-3.7s1.3-3.4,2.1-5.3c0.9-2,1.7-3.8,2.5-5.2c0.8-1.4,1.7-2.4,2.8-2.4
						c1,0,2,1.1,2.4,3.1s0.2,4.8-1,7.5c-1.2,2.8-3.2,4.8-5,5.8C624.9,544.3,623.5,544.3,622.8,543.5z"/>
				</g>
				<g>
					<path class="st22" d="M614.6,549.9c0.6,0.5,0.6,1.6-0.1,2.9c-0.6,1.3-2,2.8-3.8,3.9c-1.8,1.1-3.8,1.6-5.2,1.6
						c-1.5,0-2.4-0.5-2.6-1.2c-0.2-0.7,0.4-1.6,1.3-2.5c0.9-0.9,2.2-1.8,3.7-2.7c1.5-0.9,2.9-1.6,4-2.1
						C613,549.5,614,549.4,614.6,549.9z"/>
				</g>
				<g>
					<path class="st22" d="M614.5,506.6c0.2,2.4-4.7,4.8-10.9,4.8c-6.3,0-11.2-2.3-11-4.7c0.2-2.4,5.1-3.9,10.9-4
						C609.3,502.8,614.2,504.3,614.5,506.6z"/>
				</g>
				<g>
					<path class="st22" d="M612.3,540.1c0.8,0.8,0.6,2.5-0.7,4.3c-1.3,1.8-3.8,3.8-6.9,4.9c-3.2,1.1-6.3,1.1-8.5,0.5
						s-3.4-1.8-3.3-2.9c0.1-1.2,1.3-2.1,2.9-3c1.7-0.9,3.8-1.7,6.1-2.5c2.3-0.8,4.5-1.5,6.3-1.9C610,539.2,611.5,539.2,612.3,540.1z
						"/>
				</g>
				<g>
					<path class="st22" d="M567.1,554.1c-0.6,0.8-1.9,1-3.7,0.5c-1.7-0.5-3.8-1.8-5.5-3.6c-1.8-1.9-2.9-4-3.4-5.7
						c-0.4-1.7-0.2-3.1,0.7-3.6c0.9-0.6,2.1-0.2,3.5,0.6s3,2.1,4.5,3.7s2.7,3.2,3.5,4.7C567.4,551.9,567.7,553.2,567.1,554.1z"/>
				</g>
			</g>
			<g>
				<path class="st23" d="M614.1,551.5c0.5,2.5-0.4,5.2-2.9,7.8c-2.5,2.5-6.7,4.8-12.3,5.9c-2.8,0.6-5.9,0.8-9.3,0.7
					c-3.3-0.2-6.9-0.7-10.6-1.8c-7.3-2.1-15.1-6.4-21.6-13c-6.4-6.6-10.6-14.5-12.5-21.9c-1-3.7-1.5-7.3-1.6-10.7
					c-0.1-3.4,0.2-6.5,0.9-9.2c1.2-5.6,3.6-9.7,6.1-12.1c2.6-2.5,5.3-3.3,7.8-2.7c2.5,0.5,4.7,2.3,6.6,4.6c1.9,2.3,3.8,5.1,5.8,8
					c3.8,5.9,8.4,12.5,13.6,17.9c5.3,5.4,11.7,10.1,17.6,14c2.9,2,5.7,3.9,7.9,5.9C611.9,546.8,613.6,548.9,614.1,551.5z"/>
			</g>
		</g>
		<g>
			<path class="st21" d="M753.9,452.1c1-1.9,1.7-4,1.5-5.9c-0.3-1.9-1.8-3.4-3.7-3.1c-1.5,0.3-2.8,1.6-3.5,3.1
				c-0.1,0.2-0.2,0.5-0.3,0.8c-0.5,1.6-2.4,2.2-3.7,1.1c-2.6-2.1-4.6-4.7-5.5-7.8c0.9-1.6,1.8-3.3,2.5-5.1c1.9-0.7,4-0.8,6.1-0.3
				c1,0.2,1.5,1.4,0.9,2.3c-0.1,0.1-0.1,0.2-0.2,0.3c-0.4,0.8-0.8,1.7-0.6,2.6c0.2,1.3,1.5,1.8,2.6,1.4s2-1.4,2.7-2.5
				c1-1.7,1.7-3.6,2-5.6c0.2-1.3,0.2-2.8-0.4-3.8c-0.6-1.1-1.9-1.7-2.9-1c-0.8,0.5-1.3,1.6-1.4,2.6c0,0.2,0,0.3,0,0.5
				c0.1,1.1-1,1.8-2,1.5c-2-0.7-3.8-1.9-5-3.5c0.6-2.5,0.9-4.9,1-7.5c2.1-1.7,4.7-2.7,7.5-3c1.5-0.2,2.6,1.1,2.3,2.6
				c0,0.2-0.1,0.4-0.1,0.5c-0.2,1.3-0.2,2.7,0.4,3.7c0.9,1.5,2.9,1.7,4.2,0.6c1.3-1,1.9-2.8,2.3-4.6c0.5-2.7,0.5-5.6-0.1-8.3
				c-0.4-1.8-1.1-3.7-2.4-4.9c-1.3-1.1-3.2-1.3-4.3,0c-0.8,1-1,2.7-0.6,4.1c0.1,0.2,0.1,0.5,0.2,0.7c0.6,1.4-0.4,2.9-1.9,2.9
				c-2.9,0.1-5.7-0.6-8-2.1c-0.4-2.4-1-4.8-1.8-7.1c0.8-1.5,2.2-2.7,3.8-3.5c0.8-0.4,1.7,0.1,1.9,1c0,0.1,0,0.2,0.1,0.3
				c0.2,0.8,0.4,1.6,1,2c0.8,0.7,2,0.3,2.5-0.5s0.5-2,0.3-3.1c-0.3-1.6-0.9-3.3-1.7-4.7c-0.6-1-1.4-1.9-2.4-2.3s-2.1-0.1-2.5,0.9
				c-0.3,0.8,0,1.7,0.5,2.5c0.1,0.1,0.2,0.2,0.3,0.3c0.6,0.7,0.4,1.7-0.5,2.1c-1.7,0.7-3.5,0.9-5.2,0.4c-1.1-2.2-2.4-4.2-4-6.2
				c0.5-2.7,1.9-5.1,3.8-7.1c1-1.1,2.7-0.8,3.4,0.5c0.1,0.2,0.2,0.3,0.3,0.5c0.7,1.1,1.6,2.2,2.7,2.6c1.7,0.6,3.3-0.6,3.6-2.2
				c0.3-1.6-0.3-3.4-1.2-5c-1.3-2.4-3.2-4.6-5.4-6.3c-1.5-1.2-3.2-2.1-4.9-2.2c-1.7-0.1-3.3,1.1-3.3,2.8c0,1.3,1,2.7,2.2,3.6
				c0.2,0.1,0.4,0.3,0.6,0.4c1.3,0.7,1.5,2.5,0.4,3.5c-2.2,1.9-4.7,3.2-7.5,3.6c-2.2-1.9-4.5-3.5-6.9-4.8c0.1-0.7,0.4-1.5,0.7-2.2
				c0.4-0.8,1.4-1,2.1-0.5c0.1,0.1,0.2,0.1,0.3,0.2c0.6,0.5,1.3,0.9,2.1,0.9c1.1,0,1.7-1,1.6-2c-0.1-1-0.9-1.9-1.7-2.6
				c-1.2-1.1-2.8-2-4.3-2.5c-1.1-0.4-2.3-0.6-3.3-0.2c-1,0.3-1.7,1.3-1.3,2.3c0.3,0.8,1.1,1.3,2,1.6c0.1,0,0.3,0.1,0.4,0.1
				c0.9,0.1,1.4,1.1,1,1.9c-0.4,0.7-0.9,1.4-1.4,2c-3-1.4-6.1-2.4-9.3-3c-0.9-1.8-1.2-3.9-1.1-5.9c0.1-1.2,1.2-1.9,2.3-1.5
				c0.1,0.1,0.3,0.1,0.4,0.1c1,0.3,2.1,0.5,3,0.2c1.3-0.5,1.7-2,1.1-3.2c-0.6-1.1-2-1.9-3.3-2.5c-2-0.8-4.3-1.2-6.5-1.1
				c-1.5,0-3.1,0.3-4.2,1.2c-1.1,0.9-1.5,2.4-0.6,3.4c0.7,0.8,2,1.1,3.2,1.1c0.2,0,0.4,0,0.6-0.1c1.2-0.3,2.2,0.7,2,1.9
				c-0.3,2.1-1.1,4.1-2.5,5.7c-3-0.1-6.1,0.1-9.1,0.7c-0.6-0.9-1-1.8-1.3-2.9c-0.3-1,0.4-1.9,1.5-1.9c0.1,0,0.3,0,0.4,0
				c0.9,0,1.9-0.2,2.5-0.7c0.9-0.8,0.8-2.2-0.1-2.9c-0.8-0.7-2.2-1-3.4-1c-1.9,0-3.9,0.3-5.6,1c-1.2,0.5-2.4,1.2-3,2.2
				s-0.5,2.4,0.6,3c0.8,0.4,2,0.3,2.9-0.1c0.2-0.1,0.3-0.2,0.4-0.3c0.9-0.6,2-0.1,2.2,0.9c0.2,1.1,0.3,2.2,0.2,3.3
				c-2.7,0.7-5.3,1.8-7.9,3.1c-2.5-1-4.7-2.7-6.3-5c-0.9-1.2-0.3-2.8,1-3.3c0.2-0.1,0.3-0.1,0.5-0.2c1.2-0.5,2.4-1.2,3-2.2
				c0.9-1.5,0-3.3-1.5-3.9c-1.5-0.6-3.4-0.3-5.2,0.3c-2.6,0.9-5.1,2.3-7.1,4.2c-1.4,1.3-2.7,2.8-3,4.5c-0.3,1.7,0.5,3.5,2.2,3.7
				c1.3,0.2,2.8-0.5,3.9-1.5c0.2-0.2,0.3-0.4,0.5-0.6c0.9-1.2,2.7-1.1,3.5,0.2c1.5,2.5,2.3,5.2,2.2,8c-0.8,0.6-1.5,1.3-2.2,2
				c-1.6,1.5-3,3.1-4.2,4.7c-1.1-0.3-2.1-0.8-3.1-1.5c-1-0.6-1-2-0.1-2.7c0.1-0.1,0.2-0.2,0.3-0.3c0.7-0.7,1.5-1.5,1.7-2.5
				c0.2-1.4-0.9-2.5-2.2-2.5s-2.6,0.7-3.7,1.6c-1.7,1.4-3.1,3.1-4.2,5c-0.7,1.3-1.2,2.8-1,4.1s1.3,2.4,2.6,2.2c1-0.2,2-1.2,2.5-2.2
				c0.1-0.2,0.2-0.4,0.2-0.5c0.3-1.1,1.7-1.5,2.6-0.8c1,0.8,1.8,1.7,2.5,2.7c-1.4,2.2-2.6,4.6-3.5,7c-3.4,0.7-8.7,0-11.5-0.7
				c-1.4-0.3-2.1-2-1.3-3.2c0.1-0.2,0.2-0.3,0.3-0.5c0.6-1.1,1.1-2.4,0.9-3.7c-0.3-1.8-2.1-2.5-3.7-2c-1.5,0.5-2.8,2-3.7,3.6
				c-1.4,2.3-2.4,5-2.8,7.8c-0.3,1.9-0.2,3.9,0.6,5.4s2.6,2.3,4.1,1.4c1.1-0.7,1.8-2.2,2-3.7c0-0.2,0-0.5,0-0.7
				c-0.1-1.5,1.4-2.6,2.8-2.1c2.9,1,8,3.5,10.4,6.1c-0.3,2.2-0.5,4.4-0.5,6.6c-1.1,0.5-2.2,0.8-3.5,0.9c-1.1,0.1-1.9-0.8-1.7-1.9
				c0-0.1,0-0.3,0.1-0.4c0.1-0.9,0.2-2-0.3-2.8c-0.7-1.1-2.1-1.2-3.1-0.5c-0.9,0.8-1.4,2.1-1.7,3.4c-0.4,2-0.4,4.1,0,6.1
				c0.3,1.4,0.8,2.7,1.8,3.6c0.9,0.8,2.4,1,3.2,0c0.6-0.8,0.7-2,0.4-3.1c0-0.2-0.1-0.3-0.2-0.5c-0.4-1,0.3-2.1,1.4-2.2
				c1.3,0,2.5,0.1,3.7,0.5c0.3,3.1,1,6.1,2,9.1c-1.1,1.7-2.7,3-4.5,3.9c-1,0.5-2.3-0.1-2.5-1.3c0-0.1,0-0.3-0.1-0.4
				c-0.2-1-0.6-2.1-1.3-2.7c-1.1-0.9-2.6-0.5-3.3,0.7c-0.7,1.1-0.7,2.6-0.5,4.1c0.3,2.2,1.1,4.3,2.3,6.2c0.8,1.3,1.8,2.5,3.1,3
				s2.8,0.1,3.2-1.2c0.3-1,0-2.3-0.7-3.3c-0.1-0.2-0.2-0.3-0.4-0.5c-0.8-0.9-0.5-2.3,0.6-2.7c2-0.8,4.1-1.1,6.2-0.7
				c1.4,2.7,3.2,5.4,5.4,7.8c-0.4,0.7-0.8,1.3-1.4,1.9c-0.6,0.7-1.7,0.5-2.1-0.3c-0.1-0.1-0.1-0.2-0.2-0.3c-0.4-0.7-0.9-1.3-1.6-1.6
				c-1-0.4-2,0.4-2.2,1.3c-0.2,1,0.2,2.1,0.7,3c0.8,1.5,1.9,2.8,3.2,3.8c0.9,0.7,2,1.3,3,1.3s2-0.7,2-1.7c0-0.8-0.6-1.6-1.3-2.2
				c-0.1-0.1-0.2-0.2-0.4-0.2c-0.8-0.4-0.9-1.5-0.3-2.1c0.6-0.5,1.3-1,2-1.4c1.9,1.9,3.9,3.5,6,5c0.6,3.3,0.1,6.7-1.3,9.9
				c-0.7,1.6-2.7,2-4,0.9c-0.2-0.1-0.3-0.3-0.5-0.4c-1.2-0.9-2.6-1.8-4.1-1.8c-2.1,0-3.4,2-3.1,3.9c0.3,1.9,1.8,3.7,3.4,5.1
				c2.4,2.1,5.4,3.8,8.5,4.9c2.1,0.7,4.5,1.1,6.4,0.4c1.9-0.6,3.3-2.6,2.5-4.5c-0.6-1.5-2.2-2.6-3.9-3.1c-0.3-0.1-0.6-0.1-0.9-0.2
				c-1.7-0.2-2.7-2.1-1.9-3.7c1.7-3.1,4.2-5.7,7.3-7.3c2.1,0.7,4.3,1.3,6.5,1.7c0.4,1.3,0.5,2.7,0.4,4.1c-0.1,1.2-1.2,1.9-2.3,1.5
				c-0.1-0.1-0.3-0.1-0.4-0.1c-1-0.3-2.1-0.5-3-0.2c-1.3,0.5-1.7,2-1.1,3.2s2,1.9,3.3,2.5c2,0.8,4.3,1.2,6.5,1.1
				c1.5,0,3.1-0.3,4.2-1.2c1.1-0.9,1.5-2.4,0.6-3.4c-0.7-0.8-2-1.1-3.2-1.1c-0.2,0-0.4,0-0.6,0.1c-1.2,0.3-2.2-0.7-2-1.9
				c0.2-1.5,0.7-2.9,1.4-4.1c2.7,0.2,5.4,0.1,8-0.3c2.1,1.8,3.5,4.2,4.3,6.8c0.4,1.4-0.6,2.8-2.1,2.8c-0.2,0-0.4,0-0.5,0
				c-1.3,0.1-2.7,0.3-3.6,1.1c-1.4,1.1-1.1,3.1,0.1,4.2c1.2,1.1,3.1,1.4,5,1.5c2.7,0.1,5.6-0.5,8.1-1.5c1.8-0.7,3.5-1.7,4.4-3.2
				s0.7-3.4-0.8-4.3c-1.2-0.6-2.8-0.5-4.2,0.1c-0.2,0.1-0.4,0.2-0.6,0.4c-1.2,0.8-2.9,0.1-3.2-1.4c-0.5-2.8-0.4-5.7,0.6-8.3
				c2.5-0.9,4.9-2,7.2-3.3c1,0.7,1.8,1.5,2.5,2.5c0.7,0.9,0.3,2.1-0.8,2.4c-0.1,0-0.3,0.1-0.4,0.1c-0.9,0.4-1.8,0.9-2.2,1.6
				c-0.7,1.1,0,2.5,1.1,2.9s2.5,0.2,3.8-0.2c1.9-0.6,3.7-1.7,5.3-3.1c1-0.9,2-2.1,2.2-3.3c0.3-1.2-0.4-2.6-1.6-2.8
				c-1-0.2-2.1,0.4-2.9,1.1c-0.1,0.1-0.2,0.3-0.4,0.4c-0.7,0.9-2,0.8-2.6-0.1c-0.7-1.1-1.1-2.3-1.4-3.5c1.4-1,2.8-2.1,4.1-3.4
				c0.6-0.5,1.1-1.1,1.7-1.7c3.1,0,6.2,1,8.8,2.8c1.4,0.9,1.5,2.8,0.2,3.9c-0.2,0.1-0.3,0.3-0.5,0.4c-1.1,1-2.1,2.1-2.3,3.5
				c-0.3,2,1.3,3.5,3.1,3.5s3.7-1,5.3-2.3C750.4,457.3,752.5,454.8,753.9,452.1z"/>
			<g>
				<g>
					<path class="st22" d="M719.8,397.8c-0.8,1.1-2.5,1.3-4.6,1.2c-1-0.1-2.2-0.1-3.4-0.3c-1.2-0.1-2.5-0.3-3.8-0.4
						c-1.3-0.1-2.6-0.3-3.8-0.5c-1.2-0.1-2.3-0.3-3.3-0.5c-2-0.4-3.7-1-4.2-2.2s0.3-2.9,2.6-4.4c1.1-0.7,2.6-1.3,4.3-1.7
						c1.7-0.4,3.6-0.5,5.6-0.3s3.8,0.8,5.4,1.6c1.6,0.8,2.9,1.7,3.8,2.7C720.1,394.8,720.6,396.7,719.8,397.8z"/>
				</g>
				<g>
					<path class="st22" d="M679,411.2c-0.9-0.5-1.2-1.9-0.8-3.8s1.7-4.3,3.8-6.4s4.5-3.3,6.4-3.8s3.4-0.1,3.8,0.8
						c0.5,0.9,0,2.2-0.9,3.6c-0.9,1.4-2.4,3-4,4.7c-1.6,1.6-3.2,3-4.7,4C681.2,411.2,679.9,411.7,679,411.2z"/>
				</g>
				<g>
					<path class="st22" d="M687.6,442.9c-0.6,0.7-1.9,0.8-3.6,0c-1.6-0.7-3.6-2.3-5.1-4.5s-2.3-4.6-2.3-6.4c-0.1-1.8,0.4-3,1.3-3.3
						c0.9-0.3,2,0.3,3.1,1.4s2.3,2.6,3.5,4.4s2.2,3.4,2.8,4.9C688,440.9,688.2,442.2,687.6,442.9z"/>
				</g>
				<g>
					
						<ellipse transform="matrix(0.17 -0.9854 0.9854 0.17 162.5633 1057.3558)" class="st22" cx="709" cy="432.2" rx="5.5" ry="14"/>
				</g>
				<g>
					<path class="st22" d="M708.9,409.6c0.4,1.1-0.3,2.6-1.7,4c-1.4,1.5-3.4,3-5.7,4.6c-2.3,1.5-4.5,2.7-6.4,3.4
						c-1.9,0.7-3.5,0.8-4.4,0s-0.8-2.5,0.2-4.5s3-4.3,5.8-6.1c2.8-1.8,5.7-2.8,7.9-2.9C707,407.9,708.5,408.5,708.9,409.6z"/>
				</g>
				<g>
					<path class="st22" d="M683.7,426.7c-0.5,0.1-1.1-0.3-1.6-1.3c-0.5-0.9-0.8-2.4-0.5-3.9c0.2-1.6,0.9-2.9,1.6-3.6
						c0.7-0.8,1.4-1,1.9-0.8c0.5,0.3,0.6,1,0.7,1.8c0,0.9-0.1,1.9-0.2,3.1c-0.2,1.2-0.3,2.2-0.6,3.1
						C684.6,426,684.3,426.6,683.7,426.7z"/>
				</g>
				<g>
					<path class="st22" d="M704.7,402.7c0,1-2,1.9-4.4,2.3s-4.6,0.2-4.9-0.8c-0.3-1,1.6-2.5,4.3-2.9
						C702.5,400.9,704.7,401.7,704.7,402.7z"/>
				</g>
				<g>
					<path class="st22" d="M728.4,419c-1,0.4-2.2-0.2-3.5-1.3c-1.3-1.1-2.8-2.6-4.3-4.4s-2.7-3.5-3.5-5.1c-0.8-1.5-1.1-2.9-0.5-3.7
						c0.6-0.8,2-1,3.9-0.4s4.1,2.2,5.9,4.4c1.8,2.3,2.9,4.7,3.1,6.7C729.8,417.2,729.3,418.6,728.4,419z"/>
				</g>
				<g>
					<path class="st22" d="M734.5,410.6c-0.5,0.2-1.2-0.2-1.8-0.8c-0.7-0.6-1.4-1.5-2.1-2.4c-0.7-1-1.4-1.9-1.8-2.7
						c-0.4-0.8-0.6-1.5-0.3-2s1.1-0.5,2.1-0.2c1,0.4,2.2,1.2,3.1,2.4c1,1.2,1.5,2.6,1.5,3.7C735.3,409.7,735,410.5,734.5,410.6z"/>
				</g>
				<g>
					<path class="st22" d="M729.4,436.7c-0.7-0.6-0.7-1.8-0.5-3.3s0.7-3.2,1.2-5.1s1-3.6,1.5-5s1.2-2.4,2.1-2.6
						c0.9-0.2,1.9,0.7,2.6,2.4c0.3,0.8,0.6,1.9,0.6,3.1s-0.1,2.5-0.4,3.8c-0.4,1.3-0.9,2.5-1.5,3.5s-1.4,1.8-2.1,2.4
						C731.4,437.1,730.1,437.3,729.4,436.7z"/>
				</g>
				<g>
					<path class="st22" d="M708.1,449.6c0.1-0.7,0.8-1.3,1.9-1.8c1.1-0.5,2.4-1,3.8-1.5c1.5-0.5,2.8-1,3.9-1.2
						c1.1-0.2,2.1-0.3,2.6,0.2s0.4,1.6-0.4,2.8c-0.8,1.2-2.4,2.5-4.4,3.2s-4.1,0.7-5.5,0.3C708.8,451.1,708.1,450.4,708.1,449.6z"/>
				</g>
				<g>
					<path class="st22" d="M700.7,448.5c0,0.5-0.5,1.1-1.6,1.4c-1,0.3-2.4,0.4-3.9,0s-2.7-1.2-3.4-1.9c-0.7-0.8-1-1.5-0.7-2
						s1-0.6,1.9-0.6c0.9,0.1,2,0.3,3.2,0.6c1.2,0.3,2.3,0.7,3.1,1.1C700.2,447.5,700.7,448,700.7,448.5z"/>
				</g>
				<g>
					<path class="st22" d="M723.2,427c-1.1,1.3-4.8-0.1-7.9-3.3c-3.1-3.3-4.3-7-3-8c1.4-1.1,4.6,0.7,7.5,3.7
						C722.7,422.5,724.4,425.7,723.2,427z"/>
				</g>
				<g>
					<path class="st22" d="M704.7,442.5c-0.1,0.8-1,1.5-2.6,1.8c-1.6,0.2-3.8-0.1-6-1.2s-3.7-2.7-4.5-4.2c-0.8-1.4-0.7-2.6-0.1-3.2
						c0.6-0.5,1.7-0.4,3,0s2.7,1.1,4.3,2c1.6,0.8,3,1.6,4.1,2.4C704.1,440.8,704.8,441.6,704.7,442.5z"/>
				</g>
				<g>
					<path class="st22" d="M675.1,425.8c-0.7,0.1-1.5-0.5-2.1-1.7c-0.6-1.1-0.9-2.8-0.8-4.7c0.1-1.9,0.6-3.5,1.3-4.6
						s1.5-1.6,2.2-1.4s1.2,1,1.5,2.1s0.4,2.6,0.3,4.2c-0.1,1.6-0.3,3-0.7,4.1C676.3,424.9,675.8,425.7,675.1,425.8z"/>
				</g>
			</g>
			<g class="st24">
				<path class="st25" d="M721,444.8c0.4,1.8-0.3,3.7-2.1,5.6c-1.8,1.8-4.8,3.4-8.8,4.2c-2,0.4-4.2,0.6-6.7,0.5
					c-2.4-0.1-5-0.5-7.6-1.3c-5.3-1.5-10.8-4.6-15.5-9.3c-4.6-4.8-7.6-10.4-9-15.7c-0.7-2.7-1.1-5.3-1.1-7.7c0-2.4,0.2-4.7,0.6-6.6
					c0.9-4,2.6-7,4.4-8.7c1.9-1.8,3.8-2.4,5.6-2s3.4,1.7,4.8,3.3c1.4,1.6,2.7,3.7,4.1,5.8c2.8,4.3,6,9,9.8,12.8
					c3.8,3.9,8.4,7.2,12.6,10.1c2.1,1.4,4.1,2.8,5.7,4.3C719.4,441.4,720.7,442.9,721,444.8z"/>
			</g>
		</g>
		<g>
			<path class="st21" d="M587.9,282.4c-2.6-0.1-5.4,0.3-7.4,1.6c-2,1.4-2.8,4-1.4,5.9c1.1,1.5,3.4,2.2,5.4,2.2c0.3,0,0.7,0,1-0.1
				c2.1-0.4,3.8,1.5,3.4,3.6c-0.9,4-2.8,7.8-5.7,10.5c-2.4-0.1-4.7-0.1-7.1,0.1c-1.9-1.7-3.1-4.1-3.7-6.6c-0.3-1.3,0.7-2.5,2-2.3
				c0.2,0,0.3,0,0.5,0c1.1,0,2.4-0.1,3.3-0.7c1.3-0.9,1.2-2.7,0.2-3.8c-1-1-2.7-1.4-4.3-1.6c-2.4-0.2-5,0.1-7.3,0.9
				c-1.6,0.5-3.2,1.3-4.1,2.6s-0.8,3,0.5,3.8c1,0.6,2.5,0.6,3.7,0.1c0.2-0.1,0.4-0.2,0.6-0.3c1.2-0.7,2.6,0.1,2.8,1.4
				c0.3,2.6,0,5.3-1.2,7.6c-3.1,0.7-6.1,1.7-8.9,3c-3.1-1.4-5.7-3.8-7.6-6.7c-1-1.5-0.2-3.6,1.6-4.1c0.2-0.1,0.4-0.1,0.7-0.2
				c1.5-0.5,3.1-1.3,4-2.5c1.2-1.9,0.3-4.2-1.6-5c-1.9-0.9-4.3-0.6-6.5,0c-3.3,0.9-6.5,2.5-9.3,4.7c-1.9,1.5-3.6,3.3-4.1,5.4
				c-0.6,2.1,0.4,4.4,2.5,4.8c1.6,0.4,3.6-0.4,5-1.6c0.2-0.2,0.4-0.4,0.7-0.7c1.2-1.4,3.5-1.2,4.3,0.5c1.7,3.2,2.5,6.7,2.2,10.2
				c-2.5,1.8-4.8,3.8-6.9,6c-2.2-0.1-4.2-1-6-2.3c-0.9-0.7-0.9-2,0-2.6c0.1-0.1,0.2-0.2,0.3-0.2c0.8-0.6,1.5-1.4,1.7-2.3
				c0.3-1.3-0.7-2.4-1.9-2.5c-1.2-0.1-2.5,0.5-3.7,1.3c-1.7,1.2-3.2,2.8-4.3,4.6c-0.8,1.2-1.3,2.6-1.2,3.9c0.1,1.3,1.1,2.4,2.4,2.2
				c1-0.1,1.9-1,2.5-2c0.1-0.2,0.2-0.3,0.2-0.5c0.4-1.1,1.7-1.4,2.6-0.6c1.7,1.5,2.9,3.5,3.4,5.6c-1.8,2.4-3.4,5.1-4.8,7.9
				c-3.3,0.9-6.8,0.7-10.1-0.3c-1.8-0.5-2.5-2.6-1.4-4.1c0.1-0.2,0.3-0.4,0.4-0.6c0.8-1.4,1.6-3,1.4-4.5c-0.3-2.2-2.5-3.3-4.5-2.8
				s-3.7,2.3-5,4.2c-2,2.8-3.4,6.1-4.1,9.5c-0.5,2.3-0.6,4.8,0.3,6.8s3.1,3.1,5,2.1c1.5-0.8,2.5-2.6,2.8-4.5
				c0.1-0.3,0.1-0.6,0.1-0.9c0-1.9,1.9-3.1,3.7-2.4c3.3,1.4,6.2,3.5,8.2,6.4c-0.9,3.5-1.4,7-1.5,10.5c-0.9,0.3-1.9,0.4-2.8,0.5
				c-1.1,0.1-1.9-1-1.7-2.1c0-0.1,0.1-0.3,0.1-0.4c0.2-1,0.3-2-0.1-2.9c-0.6-1.2-2.1-1.4-3.1-0.7s-1.6,2.1-2,3.4
				c-0.5,2-0.7,4.2-0.4,6.3c0.2,1.4,0.7,2.9,1.6,3.8c0.9,0.9,2.4,1.1,3.3,0.2c0.7-0.8,0.9-2,0.7-3.1c0-0.2-0.1-0.4-0.2-0.5
				c-0.4-1.1,0.5-2.2,1.6-2.1c1,0,2.1,0.2,3,0.5c0.1,4.1,0.7,8.2,1.8,12.1c-1.5,2-3.6,3.5-6,4.6c-1.4,0.6-2.9-0.3-3-1.8
				c0-0.2,0-0.4-0.1-0.5c-0.2-1.3-0.6-2.6-1.5-3.5c-1.3-1.2-3.2-0.8-4.2,0.6c-0.9,1.3-1.1,3.3-0.9,5.1c0.2,2.7,1.1,5.5,2.4,7.9
				c0.9,1.7,2.1,3.3,3.7,4s3.5,0.3,4.2-1.3c0.5-1.2,0.1-2.9-0.6-4.2c-0.1-0.2-0.3-0.4-0.4-0.6c-1-1.1-0.4-2.9,1-3.4
				c2.6-0.8,5.3-1,7.8-0.4c1.6,3.5,3.5,6.8,5.8,9.8c-0.7,1.1-1.5,2.2-2.5,3.1c-0.9,0.9-2.4,0.6-3-0.6c-0.1-0.1-0.1-0.3-0.2-0.4
				c-0.5-1-1.2-2-2.2-2.4c-1.4-0.6-2.9,0.3-3.2,1.7c-0.4,1.4,0.1,3,0.8,4.4c1,2.2,2.5,4.2,4.3,5.8c1.2,1.1,2.7,2,4.2,2.2
				s2.9-0.8,3-2.3c0-1.2-0.7-2.4-1.7-3.2c-0.2-0.1-0.3-0.3-0.5-0.4c-1.1-0.7-1.2-2.2-0.2-3c1.1-0.9,2.3-1.5,3.6-2
				c2.3,2.6,5,5,7.9,7.1c0.3,3.4-0.5,6.8-2,9.9c-0.8,1.7-3,2-4.3,0.7c-0.2-0.2-0.3-0.3-0.5-0.5c-1.2-1.1-2.7-2.1-4.2-2.2
				c-2.2-0.1-3.7,1.9-3.6,3.9c0.2,2,1.6,4,3.2,5.6c2.4,2.4,5.4,4.4,8.7,5.7c2.2,0.9,4.6,1.4,6.7,0.9c2.1-0.5,3.6-2.5,3-4.6
				c-0.5-1.6-2.2-2.9-3.9-3.5c-0.3-0.1-0.6-0.2-0.9-0.2c-1.8-0.3-2.7-2.4-1.7-4c1.9-3,4.6-5.5,7.8-7c1.1,0.5,2.3,1,3.5,1.4
				c2.5,0.9,5.1,1.6,7.7,2.1c0.2,1.4,0.2,2.8,0.1,4.3c-0.2,1.5-1.7,2.3-3,1.7c-0.2-0.1-0.3-0.1-0.5-0.2c-1.2-0.5-2.5-0.8-3.7-0.5
				c-1.7,0.5-2.3,2.4-1.6,3.9c0.7,1.5,2.3,2.5,3.9,3.3c2.5,1.1,5.2,1.8,8,1.9c1.9,0.1,3.8-0.2,5.2-1.2s2-2.8,1-4.2
				c-0.8-1.1-2.4-1.6-3.8-1.5c-0.2,0-0.5,0-0.7,0.1c-1.5,0.2-2.7-1.1-2.4-2.5c0.3-1.5,0.9-3,1.7-4.4c3.3,0.3,6.6,0.3,9.8,0
				c2.7,3.4,4.9,9.8,5.7,13.3c0.4,1.8-1,3.4-2.9,3.3c-0.2,0-0.5,0-0.7,0c-1.6,0-3.4,0.1-4.6,1c-1.8,1.3-1.7,3.8-0.2,5.3
				c1.4,1.4,3.8,2,6.1,2.2c3.4,0.3,7-0.1,10.3-1.2c2.3-0.7,4.5-1.9,5.7-3.6c1.2-1.8,1.2-4.2-0.7-5.4c-1.4-0.9-3.5-0.8-5.2-0.2
				c-0.3,0.1-0.6,0.2-0.8,0.4c-1.6,0.9-3.7-0.1-3.9-2c-0.5-3.8-0.6-10.9,1-15.1c2.7-0.8,5.2-1.9,7.7-3.2c1.2,0.9,2.2,2.1,3,3.4
				c0.7,1.1,0.2,2.6-1.2,3c-0.2,0-0.3,0.1-0.5,0.1c-1.1,0.4-2.3,0.9-2.9,1.9c-0.9,1.4-0.2,3.1,1.2,3.7s3.2,0.4,4.8,0
				c2.5-0.7,4.8-1.9,6.8-3.5c1.4-1.1,2.6-2.4,3.1-4c0.4-1.5-0.3-3.2-1.8-3.6c-1.2-0.3-2.6,0.3-3.7,1.2c-0.2,0.1-0.3,0.3-0.5,0.5
				c-0.9,1.1-2.6,0.9-3.2-0.4c-0.7-1.4-1.3-2.9-1.5-4.5c3.3-2.1,6.3-4.5,9.1-7.3c2.5,0.3,4.9,1.4,6.9,2.9c1.2,0.9,1.1,2.6-0.1,3.5
				c-0.1,0.1-0.3,0.2-0.4,0.3c-1,0.8-2,1.8-2.3,3c-0.4,1.7,0.9,3.2,2.6,3.3c1.6,0.1,3.4-0.7,4.9-1.8c2.2-1.6,4.2-3.7,5.7-6
				c1-1.6,1.8-3.4,1.6-5.2c-0.1-1.7-1.5-3.2-3.2-3c-1.3,0.2-2.6,1.3-3.3,2.6c-0.1,0.2-0.2,0.4-0.3,0.7c-0.5,1.4-2.3,1.8-3.4,0.8
				c-2-1.8-3.5-4-4.3-6.5c2.3-3.1,4.2-6.6,5.7-10.4c1,0.1,1.9,0.2,2.9,0.5c1.1,0.3,1.5,1.6,0.9,2.5c-0.1,0.1-0.2,0.2-0.2,0.3
				c-0.5,0.8-1,1.8-0.9,2.7c0.2,1.3,1.5,2,2.7,1.7c1.2-0.3,2.2-1.4,3-2.5c1.2-1.7,2-3.7,2.5-5.8c0.3-1.4,0.4-2.9-0.2-4.1
				c-0.5-1.2-1.9-1.9-3-1.3c-0.9,0.5-1.5,1.6-1.7,2.7c0,0.2,0,0.4,0,0.6c0,1.1-1.2,1.9-2.2,1.5s-1.9-0.9-2.7-1.5
				c1.1-3.2,1.8-6.4,2.2-9.5c3.4-2.6,7.5-3.9,11.8-4.1c2.2-0.1,3.8,1.9,3.3,4c-0.1,0.3-0.1,0.5-0.2,0.8c-0.4,1.9-0.6,4,0.3,5.6
				c1.2,2.4,4.1,2.7,6.1,1.3s3.1-4,3.8-6.7c1-3.9,1.3-8.2,0.7-12.3c-0.4-2.8-1.3-5.6-3.1-7.4c-1.8-1.8-4.7-2.2-6.4-0.3
				c-1.3,1.5-1.7,3.9-1.3,6.1c0.1,0.4,0.2,0.7,0.3,1.1c0.7,2.1-0.9,4.3-3.1,4.2c-4.5-0.2-8.8-1.5-12.2-4.1c-0.3-2.8-0.9-5.6-1.7-8.3
				c1.3-1.2,2.8-2.1,4.4-2.8c1.4-0.6,2.9,0.3,3,1.8c0,0.2,0,0.4,0.1,0.5c0.2,1.3,0.6,2.6,1.5,3.5c1.3,1.2,3.2,0.8,4.2-0.6
				c0.9-1.3,1.1-3.3,0.9-5.1c-0.2-2.7-1.1-5.5-2.4-7.9c-0.9-1.7-2.1-3.3-3.7-4c-1.6-0.7-3.5-0.3-4.2,1.3c-0.5,1.2-0.2,2.9,0.6,4.2
				c0.1,0.2,0.3,0.4,0.4,0.6c1,1.1,0.4,2.9-1,3.4c-1.8,0.6-3.6,0.8-5.4,0.8c-1.3-3.1-2.9-6.1-4.8-8.9c0.8-3.3,2.8-6.2,5.3-8.6
				c1.3-1.3,3.5-0.8,4.3,0.8c0.1,0.2,0.2,0.4,0.3,0.6c0.8,1.4,1.8,2.9,3.2,3.5c2,0.9,4.1-0.5,4.7-2.4c0.5-2-0.2-4.3-1.1-6.4
				c-1.5-3.1-3.6-6-6.2-8.3c-1.8-1.6-3.9-2.9-6-3.1s-4.2,1.1-4.3,3.3c-0.1,1.7,1.1,3.5,2.5,4.6c0.2,0.2,0.5,0.4,0.8,0.5
				c1.6,0.9,1.7,3.2,0.3,4.4c-2.9,2.2-6.2,3.6-9.7,3.9c-2.3-2.3-4.9-4.4-7.8-6.2c0.2-1.5,0.7-2.9,1.4-4.3c0.6-1.2,2.2-1.5,3.2-0.5
				c0.1,0.1,0.2,0.2,0.4,0.3c0.9,0.8,2,1.5,3.1,1.6c1.6,0.1,2.8-1.4,2.6-2.9c-0.1-1.5-1.2-2.9-2.4-4.1c-1.8-1.8-4-3.2-6.4-4.2
				c-1.6-0.6-3.4-1.1-5-0.7c-1.5,0.4-2.7,1.8-2.2,3.4c0.4,1.2,1.6,2.1,2.9,2.6c0.2,0.1,0.4,0.1,0.7,0.2c1.4,0.2,2,1.8,1.3,3
				c-0.9,1.3-1.9,2.6-3.1,3.5c-1.9-1-4-1.9-6.1-2.7c-0.9-0.3-1.9-0.6-2.8-0.9c-1.8-3.5-2.3-7.5-1.8-11.5c0.2-2.1,2.4-3.2,4.3-2.4
				c0.2,0.1,0.5,0.2,0.7,0.3c1.7,0.6,3.6,1.2,5.2,0.7c2.4-0.7,3.2-3.4,2.2-5.4c-1-2.1-3.2-3.6-5.6-4.7
				C595.7,283.4,591.8,282.5,587.9,282.4z"/>
			<g>
				<g>
					<path class="st22" d="M546,351.1c1.7,0.3,2.8,2.2,3.9,4.5c0.5,1.2,1.1,2.5,1.6,3.9s1.1,3,1.6,4.6c0.6,1.6,1.1,3.1,1.6,4.6
						c0.5,1.4,0.9,2.8,1.3,4c0.7,2.5,1,4.7-0.1,5.9c-1,1.3-3.5,1.3-6.4-0.4c-1.5-0.8-2.9-2.2-4.3-3.9s-2.6-3.8-3.4-6.2
						c-0.8-2.4-1.2-4.8-1.3-7c0-2.2,0.3-4.2,0.9-5.7C542.4,352.3,544.4,350.8,546,351.1z"/>
				</g>
				<g>
					<path class="st22" d="M583.8,389.5c0,1.3-1.5,2.4-3.9,3c-2.4,0.6-5.8,0.5-9.3-0.7c-3.5-1.2-6.2-3.1-7.8-5.1
						c-1.6-1.9-2-3.7-1.3-4.7c0.8-1.1,2.5-1.3,4.6-1s4.7,1,7.5,1.9s5.2,1.9,7.1,3C582.6,387,583.9,388.2,583.8,389.5z"/>
				</g>
				<g>
					<path class="st22" d="M614.7,362.1c1.1,0.3,1.9,1.7,2,4s-0.6,5.3-2.2,8.2c-1.6,2.9-3.9,5.1-5.8,6.2c-2,1.1-3.7,1.2-4.5,0.4
						c-0.8-0.9-0.7-2.4-0.2-4.3c0.6-1.9,1.6-4.1,3-6.4c1.3-2.3,2.6-4.4,3.9-5.9C612.2,362.7,613.5,361.8,614.7,362.1z"/>
				</g>
				<g>
					
						<ellipse transform="matrix(-0.9581 0.2864 -0.2864 -0.9581 1255.0776 504.369)" class="st22" cx="590.7" cy="344" rx="6.9" ry="17.5"/>
				</g>
				<g>
					<path class="st22" d="M565.3,356.7c1-1.1,3.1-1,5.5-0.3s5.3,2.1,8.3,3.8c3,1.7,5.6,3.6,7.4,5.3c1.8,1.8,2.9,3.5,2.4,4.9
						c-0.4,1.4-2.4,2.3-5.2,2.3s-6.5-1-10.1-3.1c-3.6-2.1-6.3-4.8-7.7-7.3C564.5,359.9,564.3,357.8,565.3,356.7z"/>
				</g>
				<g>
					<path class="st22" d="M598.6,375.5c0.4,0.5,0.3,1.5-0.5,2.5c-0.8,1.1-2.2,2.2-4.1,2.8c-1.9,0.6-3.7,0.6-5,0.3
						c-1.3-0.4-2-1-1.9-1.7c0-0.7,0.7-1.3,1.7-1.8s2.2-1,3.6-1.5c1.4-0.5,2.7-0.9,3.8-1C597.3,374.9,598.2,375,598.6,375.5z"/>
				</g>
				<g>
					<path class="st22" d="M559.9,365.3c1.2-0.6,3.2,1.2,5,3.7c1.8,2.5,2.8,5,1.8,5.9c-0.9,0.9-3.6-0.4-5.6-3.2
						C559.1,368.8,558.8,365.8,559.9,365.3z"/>
				</g>
				<g>
					<path class="st22" d="M565,329.6c1,0.9,1,2.6,0.6,4.7c-0.5,2.1-1.4,4.6-2.6,7.3s-2.5,5-3.7,6.7c-1.3,1.7-2.6,2.8-3.9,2.7
						c-1.3-0.2-2.3-1.7-2.6-4.2c-0.3-2.4,0.1-5.8,1.6-9.1c1.5-3.3,3.7-5.9,5.8-7.3C562.2,329,564,328.8,565,329.6z"/>
				</g>
				<g>
					<path class="st22" d="M552.2,327.4c0.5,0.5,0.5,1.4,0.2,2.5s-0.8,2.4-1.5,3.8c-0.7,1.4-1.4,2.6-2,3.5c-0.7,0.9-1.4,1.5-2.1,1.4
						c-0.7-0.1-1.2-0.9-1.4-2.2c-0.2-1.3,0.1-3.1,1-4.9s2.1-3.1,3.3-3.8C550.7,327,551.7,326.9,552.2,327.4z"/>
				</g>
				<g>
					<path class="st22" d="M584.3,318.6c-0.3,1.1-1.6,1.9-3.4,2.4c-1.8,0.6-3.9,1-6.3,1.5c-2.4,0.5-4.6,0.9-6.4,1.1
						c-1.8,0.1-3.3,0-4.1-0.9c-0.7-0.9-0.3-2.5,1.2-4.3c0.8-0.9,1.8-1.7,3.1-2.4c1.3-0.7,2.8-1.3,4.5-1.7c1.7-0.3,3.3-0.4,4.8-0.2
						c1.5,0.2,2.8,0.5,3.8,1C583.6,316.1,584.6,317.5,584.3,318.6z"/>
				</g>
				<g>
					<path class="st22" d="M610.7,335.2c-0.9,0.3-2-0.2-3.1-1.1c-1.2-0.9-2.5-2.1-3.9-3.5c-1.4-1.3-2.7-2.6-3.6-3.8
						c-0.9-1.1-1.5-2.2-1.2-3.1s1.5-1.4,3.3-1.1c1.8,0.2,4.1,1.3,6.1,3.2c2,1.9,3.1,4.2,3.3,6C612,333.7,611.6,334.9,610.7,335.2z"
						/>
				</g>
				<g>
					<path class="st22" d="M613.6,344.2c0.6-0.3,1.5,0,2.4,1s1.8,2.5,2.2,4.5c0.4,1.9,0.2,3.7-0.2,4.9c-0.5,1.2-1.2,1.9-1.8,1.9
						c-0.7-0.1-1.2-0.8-1.7-1.8c-0.5-1.1-0.8-2.4-1.1-3.9s-0.5-2.9-0.5-4.1C612.8,345.4,613,344.5,613.6,344.2z"/>
				</g>
				<g>
					<path class="st22" d="M576.9,330.9c2.1,0.5,2.6,5.4,0.7,10.7c-1.9,5.3-5.4,8.7-7.4,7.8s-1.8-5.5,0-10.5
						C572,334,574.8,330.4,576.9,330.9z"/>
				</g>
				<g>
					<path class="st22" d="M604.6,343.1c0.9-0.4,2.3,0.3,3.4,2c1.2,1.7,2.1,4.4,2,7.4c0,3-1,5.7-2.2,7.3c-1.2,1.7-2.6,2.3-3.5,1.9
						c-1-0.4-1.4-1.7-1.6-3.4c-0.2-1.7-0.3-3.7-0.2-6c0-2.2,0.1-4.3,0.4-5.9C603.1,344.7,603.6,343.4,604.6,343.1z"/>
				</g>
				<g>
					<path class="st22" d="M602.4,385.7c0.5,0.8,0.3,2-0.7,3.2c-1,1.3-2.7,2.6-4.8,3.6c-2.1,0.9-4.3,1.3-5.9,1.1
						c-1.6-0.2-2.7-0.8-2.9-1.7c-0.2-0.9,0.5-1.9,1.6-2.8s2.7-1.9,4.5-2.7c1.8-0.8,3.6-1.3,5-1.5C600.7,384.8,601.9,385,602.4,385.7
						z"/>
				</g>
			</g>
			<g class="st24">
				<path class="st25" d="M601,382.2c0.4,2.3-0.3,4.7-2.6,7c-2.3,2.3-6,4.3-11.1,5.3c-2.5,0.5-5.3,0.7-8.4,0.6
					c-3-0.2-6.3-0.6-9.6-1.6c-6.6-1.9-13.6-5.8-19.5-11.7c-5.8-6-9.5-13-11.3-19.7c-0.9-3.3-1.3-6.6-1.4-9.6c0-3,0.2-5.8,0.8-8.3
					c1.1-5,3.2-8.7,5.5-11c2.3-2.2,4.8-3,7-2.5c2.3,0.5,4.2,2.1,6,4.1c1.7,2.1,3.4,4.6,5.2,7.2c3.5,5.4,7.5,11.2,12.3,16.1
					c4.8,4.9,10.6,9.1,15.9,12.6c2.6,1.8,5.1,3.6,7.1,5.3C599,378,600.5,379.9,601,382.2z"/>
			</g>
		</g>
		<g>
			<path class="st21" d="M731.9,240.2c-0.7-2-1.7-4-3.2-5.1c-1.6-1.1-3.7-1-4.8,0.6c-0.8,1.3-0.7,3.1-0.1,4.6
				c0.1,0.2,0.2,0.5,0.4,0.7c0.8,1.4-0.1,3.2-1.7,3.5c-3.2,0.4-6.5,0-9.4-1.4c-0.5-1.8-1.2-3.6-2-5.2c0.8-1.9,2.2-3.4,3.9-4.6
				c0.9-0.6,2-0.1,2.3,0.9c0,0.1,0.1,0.2,0.1,0.4c0.3,0.9,0.7,1.8,1.4,2.2c1.1,0.7,2.3,0.1,2.8-0.9s0.3-2.4,0-3.7
				c-0.5-1.9-1.4-3.7-2.6-5.2c-0.8-1-1.9-2-3-2.3c-1.2-0.3-2.5,0.2-2.7,1.4c-0.2,0.9,0.3,2,0.9,2.8c0.1,0.1,0.2,0.3,0.4,0.4
				c0.8,0.7,0.7,2-0.3,2.5c-1.9,1-3.9,1.5-6,1.2c-1.4-2.1-2.9-4-4.7-5.8c0.2-2.7,1.3-5.2,2.9-7.4c0.9-1.2,2.6-1.1,3.4,0.1
				c0.1,0.1,0.2,0.3,0.3,0.4c0.8,1,1.8,2,3,2.3c1.7,0.4,3.2-0.9,3.3-2.5c0.1-1.6-0.7-3.3-1.8-4.8c-1.6-2.2-3.6-4.2-6-5.6
				c-1.6-1-3.4-1.8-5.1-1.6c-1.7,0.1-3.2,1.4-2.9,3.1c0.2,1.3,1.3,2.5,2.6,3.3c0.2,0.1,0.4,0.2,0.7,0.3c1.4,0.5,1.8,2.3,0.8,3.4
				c-1.9,2.1-4.3,3.7-7,4.4c-2-1.4-4.1-2.5-6.3-3.5c-0.5-1.6-0.4-3.4,0.1-5.1c0.3-0.8,1.2-1.2,2-0.7c0.1,0.1,0.2,0.1,0.3,0.2
				c0.7,0.4,1.4,0.8,2.2,0.7c1.1-0.1,1.6-1.2,1.3-2.1s-1.1-1.7-2-2.4c-1.4-0.9-2.9-1.6-4.6-2c-1.1-0.2-2.3-0.3-3.2,0.1
				c-0.9,0.4-1.5,1.5-1,2.4c0.4,0.7,1.3,1.2,2.1,1.3c0.1,0,0.3,0,0.4,0c0.9,0,1.5,0.9,1.2,1.7c-0.7,1.7-1.8,3.1-3.3,4.1
				c-2.3-0.7-4.7-1.2-7.2-1.4c-1.6-2.2-2.4-4.8-2.5-7.6c-0.1-1.5,1.3-2.5,2.7-2.2c0.2,0,0.3,0.1,0.5,0.1c1.2,0.2,2.6,0.4,3.7-0.2
				c1.6-0.8,1.8-2.8,0.9-4.1c-0.9-1.3-2.7-2.1-4.4-2.6c-2.6-0.7-5.5-0.9-8.2-0.5c-1.9,0.3-3.7,0.9-5,2.1c-1.2,1.2-1.5,3.1-0.2,4.3
				c1,0.9,2.6,1.1,4.1,0.9c0.2,0,0.5-0.1,0.7-0.2c1.4-0.5,2.8,0.6,2.8,2.1c-0.1,2.8-0.9,5.6-2.5,7.8c-2.8,0.3-5.6,0.9-8.2,1.7
				c-0.5-0.6-0.8-1.3-1.1-2c-0.4-0.8,0.2-1.7,1.1-1.8c0.1,0,0.2,0,0.3,0c0.8-0.1,1.6-0.3,2.1-0.9c0.7-0.8,0.5-1.9-0.3-2.5
				c-0.8-0.6-2-0.6-3.1-0.5c-1.6,0.1-3.3,0.6-4.8,1.4c-1,0.5-2,1.3-2.4,2.2s-0.2,2.1,0.8,2.5c0.7,0.3,1.7,0.1,2.5-0.4
				c0.1-0.1,0.2-0.2,0.4-0.3c0.7-0.6,1.7-0.3,2,0.6c0.2,0.8,0.4,1.6,0.4,2.4c-3,1.2-5.9,2.8-8.5,4.7c-1.9-0.6-3.6-1.7-5-3.2
				c-0.8-0.9-0.5-2.2,0.5-2.7c0.1-0.1,0.3-0.1,0.4-0.2c0.9-0.5,1.8-1.1,2.2-2c0.6-1.3-0.3-2.6-1.6-3c-1.2-0.3-2.7,0.1-4,0.7
				c-2,0.9-3.8,2.3-5.3,3.9c-1,1.1-1.9,2.4-2,3.8s0.7,2.7,2.1,2.7c1.1,0,2.2-0.7,2.9-1.6c0.1-0.1,0.2-0.3,0.3-0.5
				c0.6-1,2-1.1,2.8-0.2c1.3,1.7,2.2,3.6,2.4,5.7c-2.2,2.1-4.1,4.4-5.7,7c-1-0.2-2-0.5-3-1c-0.9-0.5-1.1-1.6-0.4-2.4
				c0.1-0.1,0.2-0.2,0.3-0.3c0.6-0.7,1.1-1.5,1.2-2.3c0.1-1.2-1-2-2.1-1.9c-1.1,0.1-2.2,0.9-3.1,1.8c-1.3,1.3-2.4,3-3.1,4.8
				c-0.5,1.2-0.8,2.5-0.5,3.7c0.3,1.1,1.4,2,2.5,1.6c0.9-0.3,1.6-1.2,1.9-2.1c0.1-0.2,0.1-0.3,0.1-0.5c0.2-1,1.3-1.5,2.2-1
				c0.9,0.6,1.8,1.3,2.5,2.1c-1.3,2.4-2.4,5.1-3.1,7.8c-2.4,1.2-5.2,1.5-7.9,1.2c-1.5-0.2-2.3-1.7-1.7-3c0.1-0.2,0.1-0.3,0.2-0.5
				c0.5-1.2,0.8-2.5,0.5-3.7c-0.5-1.7-2.4-2.3-3.9-1.6c-1.5,0.7-2.5,2.3-3.3,3.9c-1.1,2.5-1.8,5.2-1.9,8c-0.1,1.9,0.2,3.8,1.2,5.2
				c1,1.4,2.8,2,4.2,1c1.1-0.8,1.6-2.4,1.5-3.8c0-0.2,0-0.5-0.1-0.7c-0.3-1.5,1.1-2.7,2.5-2.4c2.8,0.6,5.4,1.9,7.3,3.9
				c-0.1,1-0.1,2-0.1,3c0,2.1,0.2,4.2,0.5,6.3c-1,0.5-2,0.9-3.2,1.2c-1.1,0.3-2.2-0.6-2.1-1.8c0-0.1,0-0.3,0-0.4
				c0-1-0.1-2.1-0.7-2.9c-0.8-1.1-2.4-1-3.3-0.1c-0.9,0.9-1.3,2.4-1.4,3.8c-0.2,2.1,0.1,4.4,0.8,6.4c0.5,1.4,1.2,2.8,2.3,3.6
				c1.1,0.8,2.6,0.7,3.4-0.4c0.6-0.9,0.5-2.2,0.1-3.3c-0.1-0.2-0.2-0.4-0.3-0.5c-0.6-1,0.1-2.3,1.2-2.5c1.2-0.2,2.5-0.2,3.7,0
				c0.6,2.5,1.5,5,2.6,7.3c-1.8,2.9-6,6.3-8.3,7.8c-1.2,0.8-2.8,0.2-3.2-1.2c0-0.2-0.1-0.3-0.2-0.5c-0.4-1.2-1-2.5-2-3.1
				c-1.5-1-3.3-0.2-4,1.3c-0.7,1.5-0.5,3.4,0,5.1c0.7,2.6,2,5.2,3.7,7.3c1.2,1.5,2.6,2.8,4.3,3.3c1.6,0.4,3.5-0.3,3.8-2
				c0.3-1.3-0.4-2.8-1.3-3.9c-0.2-0.2-0.3-0.4-0.5-0.5c-1.1-1-0.9-2.8,0.4-3.4c2.7-1.4,8-3.4,11.5-3.4c1.3,1.7,2.8,3.4,4.4,4.9
				c-0.4,1.1-1,2.2-1.7,3.1c-0.6,0.9-1.9,0.8-2.5,0c-0.1-0.1-0.2-0.2-0.2-0.3c-0.6-0.7-1.3-1.5-2.2-1.7c-1.3-0.3-2.3,0.7-2.4,1.9
				c-0.1,1.2,0.5,2.5,1.3,3.6c1.2,1.6,2.7,3.1,4.4,4.1c1.2,0.7,2.5,1.3,3.8,1.2s2.3-1.1,2.2-2.3c-0.1-1-1-1.9-1.9-2.4
				c-0.2-0.1-0.3-0.2-0.5-0.2c-1-0.4-1.3-1.7-0.6-2.5c0.9-0.9,1.8-1.7,2.9-2.3c2.4,1.9,5.1,3.5,7.9,4.8c0.4,1.9,0.3,4-0.3,5.9
				c-0.3,1.1-1.6,1.6-2.6,0.9c-0.1-0.1-0.2-0.2-0.4-0.2c-0.9-0.5-1.9-1-2.8-0.9c-1.4,0.2-2.1,1.6-1.8,2.8s1.4,2.3,2.6,3.1
				c1.8,1.2,3.9,2.1,6,2.6c1.5,0.3,3,0.4,4.3-0.2c1.2-0.6,2-1.9,1.3-3.2c-0.5-0.9-1.7-1.6-2.8-1.7c-0.2,0-0.4,0-0.6,0
				c-1.2,0-2-1.2-1.5-2.3c0.8-2,2-3.7,3.7-4.9c3,0.8,6.1,1.3,9.3,1.4c0.2,0.7,0.3,1.5,0.4,2.3c0.1,0.9-0.8,1.5-1.6,1.3
				c-0.1,0-0.2-0.1-0.3-0.1c-0.8-0.1-1.6-0.2-2.3,0.1c-1,0.5-1.1,1.7-0.5,2.5s1.6,1.3,2.7,1.5c1.6,0.4,3.3,0.5,5,0.3
				c1.1-0.2,2.3-0.5,3-1.2s0.9-1.9,0.1-2.6c-0.6-0.5-1.6-0.7-2.5-0.5c-0.1,0-0.3,0.1-0.4,0.1c-0.8,0.3-1.7-0.4-1.7-1.2
				c0-0.8,0.2-1.6,0.4-2.4c2.6-0.1,5.2-0.4,7.7-1c2.8,1.8,4.9,4.5,6.3,7.7c0.7,1.6-0.4,3.3-2.1,3.5c-0.2,0-0.4,0-0.6,0.1
				c-1.5,0.2-3.1,0.7-4.1,1.7c-1.4,1.5-0.9,3.8,0.7,4.9c1.6,1.1,3.8,1.2,6,1c3.2-0.3,6.4-1.3,9.3-2.8c2-1.1,3.8-2.5,4.7-4.3
				c0.9-1.8,0.4-4.1-1.5-4.9c-1.5-0.6-3.4-0.2-4.9,0.7c-0.2,0.1-0.5,0.3-0.7,0.5c-1.3,1.1-3.4,0.5-3.9-1.2
				c-1.1-3.4-1.3-6.9-0.2-10.2c2-1,3.9-2.2,5.7-3.5c1.2,0.6,2.3,1.5,3.3,2.5c0.8,0.9,0.5,2.2-0.5,2.7c-0.1,0.1-0.3,0.1-0.4,0.2
				c-0.9,0.5-1.8,1.1-2.2,2c-0.6,1.3,0.3,2.6,1.6,3c1.2,0.3,2.7-0.1,4-0.7c2-0.9,3.8-2.3,5.3-3.9c1-1.1,1.9-2.4,2-3.8
				s-0.7-2.7-2.1-2.7c-1.1,0-2.2,0.7-2.9,1.6c-0.1,0.1-0.2,0.3-0.3,0.5c-0.6,1-2,1.1-2.8,0.2c-0.9-1.2-1.6-2.5-2-3.8
				c2-1.8,3.7-3.8,5.3-6c2.7-0.3,5.4,0.4,7.8,1.6c1.3,0.7,1.6,2.4,0.5,3.4c-0.1,0.1-0.2,0.3-0.4,0.4c-0.8,1-1.6,2.1-1.7,3.3
				c-0.1,1.8,1.5,2.9,3.1,2.8c1.6-0.1,3.2-1.3,4.4-2.6c1.9-1.9,3.5-4.3,4.5-6.9c0.7-1.7,1.1-3.7,0.7-5.3c-0.4-1.6-2-2.9-3.6-2.3
				c-1.3,0.4-2.3,1.7-2.8,3.1c-0.1,0.2-0.1,0.5-0.2,0.7c-0.3,1.4-1.9,2.2-3.2,1.4c-2.4-1.5-4.4-3.6-5.5-6.1c1.1-2.4,1.9-4.9,2.5-7.5
				c1.2-0.2,2.3-0.3,3.5-0.1c1.1,0.1,1.7,1.2,1.2,2.2c-0.1,0.1-0.1,0.2-0.2,0.4c-0.3,0.9-0.6,1.9-0.3,2.7c0.4,1.3,1.8,1.7,2.8,1.2
				c1.1-0.5,1.9-1.7,2.4-2.9c0.8-1.8,1.3-3.9,1.4-5.9c0-1.4-0.1-2.8-0.9-3.9c-0.7-1-2.1-1.5-3.1-0.7c-0.8,0.6-1.1,1.8-1.1,2.8
				c0,0.2,0,0.4,0.1,0.5c0.2,1.1-0.8,2-1.9,1.8c-1.2-0.3-2.4-0.7-3.5-1.3c0.2-1.7,0.4-3.5,0.4-5.3c0-0.8,0-1.6-0.1-2.4
				c2.1-2.3,5-3.7,8.1-4.5c1.6-0.4,3,0.9,2.9,2.5c0,0.2,0,0.4,0,0.6c0,1.4,0.1,3,0.9,4.1c1.2,1.6,3.4,1.5,4.7,0.2
				c1.3-1.3,1.8-3.4,2-5.4C733.2,246.3,732.9,243.1,731.9,240.2z"/>
			<g>
				<g>
					<path class="st22" d="M669.5,227.7c0.2,1.3-0.8,2.7-2.3,4.1c-0.7,0.7-1.6,1.5-2.5,2.2c-0.9,0.8-1.9,1.6-2.9,2.5
						c-1,0.9-2,1.7-2.9,2.4c-0.9,0.8-1.8,1.5-2.7,2.1c-1.7,1.2-3.2,2-4.5,1.5c-1.2-0.4-1.9-2.2-1.4-4.9c0.2-1.3,0.8-2.8,1.7-4.3
						s2.1-2.9,3.7-4.2c1.5-1.3,3.2-2.2,4.8-2.8s3.2-0.9,4.5-0.9C667.6,225.4,669.2,226.4,669.5,227.7z"/>
				</g>
				<g>
					<path class="st22" d="M651.2,266.2c-1,0.3-2.2-0.4-3.3-2.1c-1.1-1.6-1.9-4.2-2-7.1s0.6-5.5,1.6-7.2s2.2-2.5,3.2-2.2
						s1.6,1.5,2,3.1c0.4,1.7,0.6,3.8,0.6,6.1c0.1,2.3,0,4.4-0.3,6.1C652.8,264.6,652.2,265.9,651.2,266.2z"/>
				</g>
				<g>
					<path class="st22" d="M679.9,281.7c0.1,0.9-0.8,1.9-2.4,2.6c-1.7,0.7-4.1,1-6.7,0.6c-2.6-0.4-4.8-1.5-6.2-2.7s-1.9-2.4-1.5-3.2
						c0.4-0.9,1.6-1.2,3.2-1.3c1.6-0.1,3.5,0.1,5.6,0.5c2.1,0.3,4,0.8,5.4,1.3C678.8,280,679.8,280.8,679.9,281.7z"/>
				</g>
				<g>
					
						<ellipse transform="matrix(-0.5976 -0.8018 0.8018 -0.5976 889.8097 964.3052)" class="st22" cx="686.9" cy="258.9" rx="5.5" ry="13.9"/>
				</g>
				<g>
					<path class="st22" d="M670.6,243.5c1.1,0.5,1.6,2,1.7,4c0.1,2-0.1,4.5-0.6,7.2s-1.1,5.1-1.9,7c-0.8,1.8-1.8,3.1-3,3.1
						c-1.2,0.1-2.3-1.1-3.1-3.2s-1-5.1-0.5-8.4c0.6-3.2,1.9-6,3.3-7.7C668,243.8,669.5,243.1,670.6,243.5z"/>
				</g>
				<g>
					<path class="st22" d="M665.6,273.4c-0.3,0.5-1,0.6-2,0.3c-1-0.3-2.2-1.1-3.2-2.3c-1-1.2-1.5-2.6-1.5-3.6
						c-0.1-1,0.2-1.7,0.7-1.9c0.5-0.2,1.1,0.2,1.8,0.8c0.6,0.6,1.3,1.4,2.1,2.3c0.7,0.9,1.4,1.8,1.8,2.5
						C665.7,272.2,665.9,272.9,665.6,273.4z"/>
				</g>
				<g>
					<path class="st22" d="M662.7,241.9c0.7,0.7,0,2.7-1.4,4.7s-3,3.4-3.9,3c-0.9-0.4-0.7-2.8,0.9-5.1
						C659.8,242.2,662,241.2,662.7,241.9z"/>
				</g>
				<g>
					<path class="st22" d="M690.6,236c-0.4,1-1.6,1.5-3.3,1.7s-3.8,0.2-6.1,0s-4.4-0.5-6-0.9c-1.6-0.5-2.8-1.1-3-2.2
						c-0.2-1,0.6-2.2,2.4-3.1c1.7-0.9,4.3-1.5,7.2-1.3s5.4,1.2,7,2.3C690.3,233.8,691,235,690.6,236z"/>
				</g>
				<g>
					<path class="st22" d="M688.8,225.9c-0.2,0.5-0.9,0.7-1.8,0.8c-0.9,0.1-2,0-3.2-0.1s-2.3-0.3-3.2-0.6c-0.9-0.3-1.5-0.6-1.6-1.2
						c-0.1-0.5,0.3-1.2,1.3-1.6c0.9-0.5,2.4-0.8,3.9-0.6c1.5,0.2,2.9,0.7,3.7,1.4C688.7,224.7,689,225.4,688.8,225.9z"/>
				</g>
				<g>
					<path class="st22" d="M704,247.3c-0.9,0.1-1.8-0.7-2.7-1.8c-0.9-1.2-1.8-2.6-2.8-4.3c-1-1.6-1.9-3.2-2.5-4.5s-0.9-2.5-0.4-3.3
						s1.8-0.9,3.5-0.3c0.8,0.3,1.8,0.9,2.7,1.6c0.9,0.8,1.7,1.8,2.5,2.9c0.7,1.2,1.2,2.4,1.5,3.5s0.4,2.2,0.3,3.1
						C705.7,246.2,704.9,247.2,704,247.3z"/>
				</g>
				<g>
					<path class="st22" d="M698.8,271.5c-0.5-0.6-0.4-1.5,0-2.6c0.3-1.1,0.9-2.4,1.5-3.8s1.2-2.7,1.8-3.7s1.2-1.7,2-1.7
						c0.7,0,1.4,0.8,1.7,2.2s0.2,3.4-0.7,5.4s-2.3,3.4-3.5,4.1C700.3,272,699.3,272,698.8,271.5z"/>
				</g>
				<g>
					<path class="st22" d="M693,276c0.4,0.4,0.4,1.1-0.1,2.1c-0.5,0.9-1.4,2-2.7,2.8c-1.3,0.8-2.7,1.2-3.7,1.2s-1.7-0.3-1.9-0.9
						c-0.1-0.5,0.3-1.1,0.9-1.8c0.7-0.6,1.6-1.3,2.6-1.9c1-0.6,2-1.2,2.9-1.5C691.8,275.8,692.6,275.7,693,276z"/>
				</g>
				<g>
					<path class="st22" d="M692.9,245.2c0.2,1.7-3.3,3.4-7.8,3.4s-8-1.7-7.8-3.4c0.1-1.7,3.6-2.8,7.8-2.8
						C689.2,242.4,692.7,243.5,692.9,245.2z"/>
				</g>
				<g>
					<path class="st22" d="M691.3,269c0.5,0.6,0.4,1.8-0.5,3.1c-0.9,1.3-2.7,2.7-5,3.5s-4.5,0.8-6.1,0.4c-1.6-0.4-2.4-1.3-2.3-2.1
						c0-0.8,0.9-1.5,2.1-2.1c1.2-0.6,2.7-1.2,4.4-1.8s3.2-1.1,4.5-1.3C689.7,268.4,690.8,268.4,691.3,269z"/>
				</g>
				<g>
					<path class="st22" d="M659.1,279c-0.4,0.6-1.4,0.7-2.6,0.3c-1.2-0.4-2.7-1.3-4-2.6c-1.3-1.3-2.1-2.8-2.4-4.1
						c-0.3-1.2-0.1-2.2,0.5-2.6s1.5-0.2,2.5,0.4s2.1,1.5,3.2,2.6c1.1,1.1,2,2.3,2.5,3.3C659.3,277.5,659.5,278.4,659.1,279z"/>
				</g>
			</g>
			<g>
				<path class="st23" d="M692.6,277.2c0.3,1.8-0.3,3.7-2.1,5.5c-1.8,1.8-4.8,3.4-8.7,4.2c-2,0.4-4.2,0.6-6.6,0.5
					c-2.4-0.1-5-0.5-7.6-1.3c-5.2-1.5-10.8-4.6-15.4-9.3c-4.6-4.7-7.5-10.3-8.9-15.6c-0.7-2.6-1-5.2-1.1-7.6c0-2.4,0.2-4.6,0.6-6.6
					c0.9-4,2.5-6.9,4.4-8.7c1.8-1.8,3.8-2.3,5.6-1.9s3.3,1.7,4.7,3.3c1.4,1.6,2.7,3.6,4.1,5.7c2.7,4.2,6,8.9,9.7,12.7
					c3.8,3.8,8.4,7.2,12.5,10c2.1,1.4,4,2.8,5.6,4.2C691.1,273.8,692.3,275.3,692.6,277.2z"/>
			</g>
		</g>
		<g>
			<path class="st21" d="M541.1,220.8c-1.1-0.7-2.4-1.2-3.6-1.1c-1.2,0.1-2.2,1-2,2.2c0.1,0.9,0.9,1.8,1.8,2.3
				c0.1,0.1,0.3,0.1,0.5,0.2c1,0.3,1.3,1.6,0.6,2.3c-1.4,1.5-3.1,2.7-5,3.2c-1-0.6-2-1.2-3.1-1.7c-0.4-1.2-0.4-2.5,0-3.8
				c0.2-0.6,0.9-0.9,1.4-0.5c0.1,0,0.1,0.1,0.2,0.1c0.5,0.3,1.1,0.5,1.6,0.5c0.8-0.1,1.2-0.9,1-1.6c-0.2-0.7-0.8-1.3-1.5-1.7
				c-1-0.7-2.2-1.2-3.4-1.4c-0.8-0.2-1.7-0.2-2.4,0.1c-0.7,0.3-1.1,1.1-0.7,1.8c0.3,0.5,0.9,0.9,1.6,1c0.1,0,0.2,0,0.3,0
				c0.7,0,1.1,0.7,0.9,1.3c-0.5,1.2-1.3,2.3-2.3,3c-1.5-0.4-3-0.7-4.6-0.8c-1-1.4-1.5-3-1.6-4.7c-0.1-0.9,0.8-1.6,1.7-1.4
				c0.1,0,0.2,0.1,0.3,0.1c0.8,0.1,1.7,0.2,2.3-0.1c1-0.5,1.1-1.7,0.5-2.6c-0.6-0.8-1.7-1.3-2.8-1.6c-1.7-0.4-3.4-0.5-5.1-0.2
				c-1.2,0.2-2.3,0.6-3.1,1.3c-0.7,0.8-0.9,2-0.1,2.7c0.6,0.6,1.7,0.7,2.5,0.5c0.1,0,0.3-0.1,0.4-0.1c0.9-0.3,1.8,0.3,1.8,1.3
				c-0.1,1.8-0.5,3.5-1.5,4.9c-1.5,0.2-3,0.5-4.4,0.9c-0.9-0.6-1.6-1.4-2-2.4c-0.2-0.5,0.1-1.1,0.7-1.1c0.1,0,0.1,0,0.2,0
				c0.5-0.1,1-0.2,1.3-0.6c0.5-0.5,0.3-1.2-0.2-1.6c-0.5-0.3-1.2-0.4-1.9-0.3c-1,0.1-2.1,0.4-3,0.9c-0.6,0.3-1.2,0.8-1.5,1.4
				c-0.3,0.6-0.1,1.3,0.5,1.5c0.5,0.2,1.1,0,1.6-0.2c0.1,0,0.2-0.1,0.2-0.2c0.4-0.4,1.1-0.2,1.3,0.4c0.4,1.1,0.4,2.2,0.1,3.3
				c-1.4,0.6-2.7,1.4-4,2.3c-1.6-0.4-3.1-1.3-4.3-2.6c-0.6-0.7-0.4-1.7,0.4-2.1c0.1,0,0.2-0.1,0.3-0.2c0.7-0.4,1.4-0.9,1.7-1.6
				c0.4-1-0.3-2-1.2-2.3c-1-0.2-2.1,0.1-3.1,0.6c-1.5,0.7-2.9,1.8-4.1,3.1c-0.8,0.9-1.4,1.9-1.5,3c-0.1,1.1,0.6,2.1,1.6,2.1
				c0.8,0,1.7-0.5,2.3-1.3c0.1-0.1,0.2-0.2,0.3-0.4c0.5-0.8,1.6-0.9,2.2-0.2c1.1,1.4,1.8,3,2,4.8c-1.2,1.3-2.3,2.7-3.2,4.2
				c-0.5-0.1-0.9-0.3-1.3-0.5c-0.5-0.2-0.6-0.9-0.2-1.3c0,0,0.1-0.1,0.1-0.2c0.3-0.4,0.6-0.8,0.6-1.3c0-0.7-0.6-1.1-1.2-1
				c-0.6,0.1-1.2,0.5-1.7,1c-0.7,0.7-1.3,1.6-1.7,2.6c-0.3,0.7-0.4,1.4-0.2,2c0.2,0.6,0.8,1.1,1.4,0.9c0.5-0.2,0.9-0.7,1-1.2
				c0-0.1,0-0.2,0.1-0.3c0.1-0.5,0.7-0.8,1.2-0.5c0.4,0.3,0.8,0.6,1.2,0.9c-1,1.8-1.7,3.7-2.1,5.7c-1.1,0.5-2.4,0.7-3.7,0.5
				c-0.7-0.1-1.2-0.8-0.9-1.5c0-0.1,0.1-0.2,0.1-0.2c0.2-0.6,0.4-1.3,0.2-1.9c-0.3-0.8-1.2-1.1-1.9-0.8c-0.7,0.4-1.2,1.2-1.6,2
				c-0.6,1.2-0.9,2.6-0.9,4c0,0.9,0.1,1.9,0.6,2.6s1.4,1,2.1,0.5c0.5-0.4,0.8-1.2,0.7-1.9c0-0.1,0-0.2,0-0.4
				c-0.1-0.7,0.5-1.4,1.2-1.2c1.3,0.3,2.5,0.8,3.5,1.7c-0.2,1.9-0.1,3.8,0.2,5.6c-0.6,0.3-1.2,0.6-1.8,0.7c-0.6,0.2-1.2-0.3-1.1-1
				c0-0.1,0-0.2,0-0.2c0-0.6-0.1-1.2-0.4-1.6c-0.5-0.6-1.3-0.6-1.8,0c-0.5,0.5-0.7,1.3-0.7,2.1c-0.1,1.2,0.1,2.4,0.5,3.5
				c0.3,0.8,0.7,1.5,1.3,1.9c0.6,0.4,1.5,0.4,1.8-0.3c0.3-0.5,0.3-1.2,0-1.8c0-0.1-0.1-0.2-0.1-0.3c-0.3-0.6,0-1.3,0.7-1.4
				c0.7-0.1,1.4-0.1,2.1,0c0.4,1.7,0.9,3.4,1.7,5c-0.7,1.5-1.8,2.8-3.3,3.8c-0.8,0.5-1.8,0.1-2-0.7c0-0.1-0.1-0.2-0.1-0.3
				c-0.3-0.7-0.6-1.5-1.3-1.9c-0.9-0.6-2.1-0.1-2.5,0.8s-0.3,2.1,0,3.2c0.5,1.6,1.3,3.2,2.4,4.5c0.7,0.9,1.7,1.7,2.7,2
				c1,0.3,2.2-0.2,2.4-1.3c0.2-0.8-0.2-1.8-0.8-2.5c-0.1-0.1-0.2-0.2-0.3-0.3c-0.7-0.6-0.6-1.7,0.2-2.2c1.6-0.8,3.3-1.3,5-1.1
				c0.4,0.5,0.7,1,1.1,1.4c0.9,1,1.8,1.9,2.8,2.8c-0.2,0.7-0.6,1.3-1,1.9c-0.4,0.6-1.3,0.6-1.7,0c-0.1-0.1-0.1-0.1-0.2-0.2
				c-0.4-0.5-0.9-1-1.5-1.1c-0.9-0.2-1.6,0.5-1.6,1.3c-0.1,0.8,0.4,1.6,0.9,2.4c0.8,1.1,1.8,2,3,2.7c0.8,0.5,1.7,0.8,2.5,0.8
				c0.8-0.1,1.6-0.7,1.4-1.6c-0.1-0.7-0.7-1.2-1.3-1.6c-0.1-0.1-0.2-0.1-0.3-0.1c-0.7-0.2-0.9-1.1-0.4-1.7c0.5-0.6,1.1-1.1,1.8-1.5
				c1.3,0.9,2.8,1.7,4.2,2.4c0.4,2.1-0.3,5.4-0.7,7.1c-0.3,0.9-1.3,1.2-2,0.7c-0.1-0.1-0.2-0.1-0.3-0.2c-0.7-0.4-1.5-0.8-2.2-0.7
				c-1.1,0.1-1.6,1.3-1.4,2.2c0.3,1,1.2,1.8,2.1,2.4c1.4,1,3.1,1.6,4.7,2c1.2,0.2,2.4,0.3,3.3-0.2c1-0.5,1.5-1.5,1-2.5
				c-0.4-0.7-1.3-1.2-2.2-1.3c-0.1,0-0.3,0-0.5,0c-0.9,0-1.6-0.9-1.2-1.8c0.7-1.7,2.4-4.9,4.1-6.3c1.3,0.3,2.7,0.4,4.1,0.5
				c0.3,0.7,0.4,1.4,0.5,2.2c0,0.7-0.6,1.2-1.2,1c-0.1,0-0.2,0-0.2-0.1c-0.6-0.1-1.2-0.2-1.7,0.1c-0.7,0.4-0.8,1.3-0.4,1.9
				c0.4,0.6,1.3,1,2.1,1.2c1.2,0.3,2.5,0.4,3.8,0.2c0.9-0.1,1.7-0.4,2.3-1s0.7-1.5,0.1-2c-0.5-0.4-1.2-0.5-1.9-0.4
				c-0.1,0-0.2,0.1-0.3,0.1c-0.6,0.2-1.3-0.3-1.3-0.9c0-0.8,0.2-1.6,0.4-2.3c1.9-0.1,3.8-0.4,5.7-1c1,0.7,1.8,1.8,2.3,2.9
				c0.3,0.7-0.1,1.4-0.9,1.5c-0.1,0-0.2,0-0.3,0c-0.6,0.1-1.3,0.3-1.7,0.7c-0.6,0.6-0.4,1.6,0.3,2.1c0.7,0.5,1.6,0.5,2.5,0.4
				c1.3-0.1,2.7-0.6,3.9-1.2c0.8-0.5,1.6-1.1,1.9-1.8c0.4-0.8,0.1-1.7-0.7-2c-0.6-0.2-1.4-0.1-2,0.3c-0.1,0.1-0.2,0.1-0.3,0.2
				c-0.6,0.5-1.4,0.2-1.7-0.5c-0.4-1.3-0.5-2.6-0.3-3.8c1.7-0.8,3.4-1.8,5-3.1c0.4,0.3,0.8,0.6,1.1,0.9c0.4,0.4,0.3,1-0.2,1.3
				c-0.1,0-0.1,0.1-0.2,0.1c-0.4,0.2-0.8,0.5-1,1c-0.3,0.6,0.2,1.2,0.8,1.4c0.6,0.1,1.3-0.1,1.9-0.4c0.9-0.5,1.8-1.1,2.5-1.9
				c0.5-0.5,0.9-1.2,0.9-1.8c0-0.6-0.3-1.3-1-1.3c-0.5,0-1,0.3-1.4,0.8c-0.1,0.1-0.1,0.1-0.2,0.2c-0.3,0.5-1,0.5-1.3,0.1
				s-0.6-0.8-0.8-1.3c1.2-1.1,2.3-2.3,3.2-3.6c2.1-0.3,4.2,0.1,6.1,1.1c1,0.5,1.2,1.7,0.4,2.5c-0.1,0.1-0.2,0.2-0.3,0.3
				c-0.6,0.7-1.2,1.6-1.2,2.5c-0.1,1.3,1.1,2.2,2.3,2c1.2-0.1,2.3-1,3.3-1.9c1.4-1.5,2.5-3.2,3.3-5.1c0.5-1.3,0.8-2.7,0.5-4
				c-0.3-1.2-1.5-2.1-2.7-1.7c-0.9,0.3-1.7,1.3-2,2.3c-0.1,0.2-0.1,0.3-0.1,0.5c-0.2,1.1-1.4,1.6-2.3,1.1c-1.9-1.2-3.4-2.8-4.3-4.7
				c0.5-1.3,0.9-2.6,1.2-4c0.8-0.2,1.7-0.2,2.6-0.1c0.7,0.1,1.2,0.8,0.9,1.5c0,0.1-0.1,0.2-0.1,0.2c-0.2,0.6-0.4,1.3-0.2,1.9
				c0.3,0.8,1.2,1.1,1.9,0.8c0.7-0.4,1.2-1.2,1.6-2c0.6-1.2,0.9-2.6,0.9-4c0-0.9-0.1-1.9-0.6-2.6c-0.5-0.7-1.4-1-2.1-0.5
				c-0.5,0.4-0.8,1.2-0.7,1.9c0,0.1,0,0.2,0,0.4c0.1,0.7-0.5,1.4-1.2,1.2c-0.9-0.2-1.8-0.5-2.5-1c0.2-1.7,0.2-3.3,0.1-5
				c1.2-1.2,2.7-2,4.4-2.4c0.9-0.2,1.7,0.5,1.6,1.4c0,0.1,0,0.2,0,0.3c0,0.8,0.1,1.7,0.5,2.3c0.7,0.9,1.9,0.8,2.6,0.1
				c0.7-0.7,1-1.9,1.1-3c0.1-1.7-0.1-3.5-0.7-5.1c-0.4-1.1-1-2.2-1.8-2.8s-2.1-0.5-2.7,0.4c-0.4,0.7-0.4,1.7,0,2.6
				c0.1,0.1,0.1,0.3,0.2,0.4c0.5,0.8,0,1.8-0.9,2c-1.8,0.3-3.5,0.1-5.1-0.6c-0.5-1.6-1.1-3.1-1.9-4.6c0.5-0.6,1-1.1,1.6-1.5
				s1.3-0.1,1.5,0.6c0,0.1,0,0.2,0.1,0.2c0.2,0.6,0.5,1.1,1,1.4c0.7,0.4,1.5,0.1,1.8-0.6c0.3-0.7,0.2-1.6,0-2.4
				c-0.3-1.2-1-2.4-1.8-3.4c-0.5-0.7-1.2-1.3-2-1.5c-0.8-0.2-1.6,0.2-1.8,0.9c-0.1,0.6,0.2,1.3,0.6,1.8c0.1,0.1,0.2,0.2,0.2,0.2
				c0.5,0.4,0.4,1.3-0.2,1.6c-0.7,0.4-1.4,0.6-2.2,0.8c-0.6-0.9-1.2-1.8-2-2.6c-0.3-0.4-0.7-0.7-1-1.1c0.1-1.9,0.8-3.8,2-5.4
				c0.6-0.8,1.8-0.8,2.4,0c0.1,0.1,0.2,0.2,0.2,0.3c0.6,0.7,1.3,1.4,2.1,1.6c1.2,0.3,2.2-0.7,2.3-1.8c0.1-1.1-0.5-2.3-1.3-3.3
				C544.2,223.1,542.7,221.8,541.1,220.8z"/>
			<g>
				<g>
					<path class="st22" d="M506.4,240.3c0.6,0.5,0.7,1.6,0.6,2.9c-0.1,0.6-0.2,1.3-0.3,2.1c-0.1,0.7-0.2,1.5-0.4,2.4
						c-0.1,0.8-0.3,1.6-0.4,2.4c-0.1,0.7-0.3,1.4-0.4,2.1c-0.3,1.2-0.7,2.2-1.5,2.5c-0.8,0.3-1.8-0.3-2.7-1.7
						c-0.4-0.7-0.8-1.6-0.9-2.7c-0.2-1.1-0.2-2.3,0-3.5c0.2-1.2,0.6-2.4,1.1-3.3c0.5-0.9,1.1-1.7,1.8-2.3
						C504.6,240,505.8,239.8,506.4,240.3z"/>
				</g>
				<g>
					<path class="st22" d="M513.5,266c-0.3,0.5-1.2,0.7-2.4,0.4c-1.2-0.3-2.6-1.2-3.8-2.5c-1.2-1.3-1.9-2.9-2.1-4.1
						c-0.2-1.2,0-2.1,0.6-2.4c0.6-0.3,1.4,0.1,2.2,0.7c0.9,0.6,1.8,1.5,2.8,2.6c1,1.1,1.8,2.1,2.3,3
						C513.6,264.7,513.8,265.5,513.5,266z"/>
				</g>
				<g>
					<path class="st22" d="M533.4,261.6c0.4,0.4,0.4,1.2-0.1,2.2s-1.5,2.1-2.9,3c-1.4,0.9-2.9,1.3-4,1.3c-1.1,0-1.9-0.4-2-0.9
						c-0.2-0.6,0.3-1.2,1-1.9c0.7-0.7,1.7-1.4,2.8-2.1c1.1-0.7,2.2-1.3,3.1-1.6C532.2,261.3,533,261.2,533.4,261.6z"/>
				</g>
				<g>
					
						<ellipse transform="matrix(-0.9762 -0.2168 0.2168 -0.9762 988.4374 604.4369)" class="st22" cx="527.4" cy="248" rx="3.4" ry="8.7"/>
				</g>
				<g>
					<path class="st22" d="M513.4,247.4c0.7-0.2,1.6,0.3,2.4,1.2c0.9,0.9,1.8,2.2,2.7,3.6c0.9,1.5,1.6,2.9,1.9,4.1
						c0.4,1.2,0.4,2.2-0.1,2.7s-1.6,0.4-2.8-0.3c-1.2-0.7-2.6-2-3.6-3.8c-1-1.8-1.5-3.6-1.6-5C512.3,248.6,512.7,247.6,513.4,247.4z
						"/>
				</g>
				<g>
					<path class="st22" d="M523.2,263.5c0.1,0.3-0.2,0.7-0.8,1s-1.5,0.4-2.4,0.2c-1-0.2-1.7-0.6-2.2-1.1s-0.6-0.9-0.4-1.2
						c0.2-0.3,0.6-0.4,1.2-0.4c0.5,0,1.2,0.1,1.9,0.2c0.7,0.1,1.4,0.3,1.9,0.5C522.8,263,523.2,263.2,523.2,263.5z"/>
				</g>
				<g>
					<path class="st22" d="M509,249.8c0.6,0,1.1,1.3,1.3,2.8c0.2,1.5,0,2.8-0.6,3s-1.5-1-1.7-2.7C507.8,251.2,508.4,249.8,509,249.8
						z"/>
				</g>
				<g>
					<path class="st22" d="M519.8,235.6c0.2,0.6-0.2,1.4-0.9,2.2c-0.7,0.8-1.7,1.6-2.9,2.5c-1.2,0.9-2.3,1.6-3.2,2
						c-1,0.4-1.8,0.6-2.3,0.2c-0.5-0.4-0.6-1.3-0.1-2.4s1.5-2.5,2.9-3.5c1.5-1.1,3-1.6,4.2-1.7C518.7,234.7,519.6,235,519.8,235.6z"
						/>
				</g>
				<g>
					<path class="st22" d="M514.8,231.6c0.1,0.3-0.1,0.7-0.5,1.1s-0.9,0.8-1.6,1.3c-0.6,0.4-1.2,0.8-1.7,1s-1,0.3-1.2,0.1
						c-0.3-0.2-0.3-0.7-0.1-1.3c0.2-0.6,0.8-1.3,1.6-1.9s1.7-0.8,2.3-0.8C514.3,231.1,514.7,231.3,514.8,231.6z"/>
				</g>
				<g>
					<path class="st22" d="M530.8,235.5c-0.4,0.4-1.2,0.4-2,0.2c-0.9-0.2-2-0.5-3.1-0.9c-1.1-0.4-2.2-0.7-3-1.1
						c-0.8-0.4-1.4-0.8-1.5-1.4c-0.1-0.6,0.5-1.2,1.5-1.6c0.5-0.2,1.2-0.3,1.9-0.3c0.7,0,1.5,0.1,2.3,0.4c0.8,0.3,1.5,0.6,2.1,1.1
						c0.6,0.4,1.1,0.9,1.4,1.4C531.1,234.3,531.2,235.1,530.8,235.5z"/>
				</g>
				<g>
					<path class="st22" d="M538.2,249.1c-0.5-0.1-0.8-0.6-1.1-1.2c-0.3-0.7-0.6-1.5-0.8-2.4c-0.3-0.9-0.5-1.8-0.6-2.5
						s-0.1-1.3,0.2-1.6c0.3-0.3,1-0.2,1.7,0.3s1.5,1.5,1.9,2.8c0.4,1.3,0.3,2.5,0,3.4C539.1,248.7,538.6,249.1,538.2,249.1z"/>
				</g>
				<g>
					<path class="st22" d="M537.3,253.6c0.3,0,0.7,0.4,0.8,1c0.2,0.6,0.1,1.5-0.1,2.4c-0.3,0.9-0.8,1.7-1.3,2.1s-1,0.5-1.2,0.4
						c-0.3-0.2-0.3-0.6-0.3-1.2c0.1-0.6,0.2-1.2,0.5-2c0.2-0.7,0.5-1.4,0.8-1.9C536.6,254,536.9,253.6,537.3,253.6z"/>
				</g>
				<g>
					<path class="st22" d="M524.6,239.1c0.8,0.7-0.2,3-2.3,4.8c-2.1,1.8-4.5,2.5-5.1,1.6s0.6-2.8,2.5-4.5
						C521.8,239.2,523.8,238.3,524.6,239.1z"/>
				</g>
				<g>
					<path class="st22" d="M533.6,251c0.5,0.1,0.9,0.7,1,1.7c0.1,1-0.2,2.4-0.9,3.7c-0.8,1.3-1.8,2.2-2.7,2.6c-0.9,0.4-1.7,0.4-2,0
						c-0.3-0.4-0.2-1.1,0.1-1.9c0.3-0.8,0.8-1.7,1.3-2.6c0.5-1,1.1-1.8,1.6-2.5C532.6,251.4,533.1,250.9,533.6,251z"/>
				</g>
				<g>
					<path class="st22" d="M522.4,268.9c0,0.4-0.4,0.9-1.1,1.2c-0.7,0.3-1.8,0.5-2.9,0.4c-1.1-0.1-2.1-0.5-2.8-0.9
						c-0.7-0.5-1-1-0.8-1.4c0.1-0.4,0.7-0.7,1.4-0.8s1.6-0.2,2.6-0.1c1,0.1,1.9,0.3,2.5,0.6C521.9,268.1,522.4,268.4,522.4,268.9z"
						/>
				</g>
			</g>
			<g>
				<path class="st23" d="M530.7,264.1c0.2,1.1-0.2,2.3-1.3,3.5c-1.1,1.1-3,2.1-5.5,2.6c-1.2,0.3-2.6,0.4-4.1,0.3s-3.1-0.3-4.7-0.8
					c-3.3-0.9-6.7-2.9-9.6-5.8c-2.9-3-4.7-6.5-5.6-9.7c-0.5-1.6-0.7-3.3-0.7-4.7c0-1.5,0.1-2.9,0.4-4.1c0.6-2.5,1.6-4.3,2.7-5.4
					c1.2-1.1,2.4-1.5,3.5-1.2c1.1,0.2,2.1,1,2.9,2c0.9,1,1.7,2.3,2.6,3.6c1.7,2.6,3.7,5.6,6.1,8c2.4,2.4,5.2,4.5,7.8,6.3
					c1.3,0.9,2.5,1.8,3.5,2.6C529.7,262,530.5,262.9,530.7,264.1z"/>
			</g>
		</g>
	</g>
</g>
</svg>
